<svg width="23" height="23" viewBox="0 0 23 23" fill="none" xmlns="http://www.w3.org/2000/svg">
<path d="M11.5 0C5.14869 0 0 5.1487 0 11.5C0 17.8513 5.14869 23 11.5 23C17.8513 23 23 17.8513 23 11.5C22.9927 5.15171 17.8483 0.00725938 11.5 0ZM11.5 21.85C5.78385 21.85 1.15 17.2162 1.15 11.5C1.15 5.78386 5.78385 1.15 11.5 1.15C17.2162 1.15 21.85 5.78386 21.85 11.5C21.8433 17.2134 17.2134 21.8433 11.5 21.85Z" fill="#9A9A9A"/>
<path d="M6.89961 7.47498C5.62936 7.47498 4.59961 8.50473 4.59961 9.77498C4.59961 11.0452 5.62936 12.075 6.89961 12.075C8.16986 12.075 9.19961 11.0452 9.19961 9.77498C9.19961 8.50473 8.16986 7.47498 6.89961 7.47498ZM6.89961 10.925C6.26445 10.925 5.74961 10.4101 5.74961 9.77498C5.74961 9.13982 6.26445 8.62498 6.89961 8.62498C7.53477 8.62498 8.04961 9.13982 8.04961 9.77498C8.04961 10.4101 7.53477 10.925 6.89961 10.925Z" fill="#9A9A9A"/>
<path d="M11.5493 7.86138L10.5384 6.85053C10.4171 6.72985 10.3492 6.56561 10.3498 6.39455C10.3485 5.40397 9.54582 4.60127 8.55524 4.59998H6.25524C5.7795 4.6012 5.32352 4.79001 4.98621 5.12553L2.82536 7.28638C2.48769 7.62218 2.29845 8.07916 2.29981 8.5554V10.9946C2.29845 11.4708 2.48769 11.9278 2.82536 12.2636L3.83621 13.2744C3.95754 13.3951 4.02546 13.5593 4.02481 13.7304C4.02611 14.721 4.82881 15.5237 5.81939 15.525H6.96939C7.44513 15.5238 7.9011 15.3349 8.23841 14.9994L9.82426 13.4136C9.94559 13.2933 10.1094 13.2255 10.2802 13.225C11.2708 13.2237 12.0735 12.421 12.0748 11.4304V9.1304C12.0762 8.65416 11.8869 8.19718 11.5493 7.86138ZM10.9248 11.4304C10.9245 11.7863 10.6361 12.0747 10.2802 12.075C9.8045 12.0762 9.34852 12.265 9.01121 12.6005L7.42536 14.1864C7.30404 14.3067 7.14023 14.3745 6.96939 14.375H5.81939C5.46353 14.3747 5.1751 14.0863 5.17481 13.7304C5.17618 13.2542 4.98693 12.7972 4.64926 12.4614L3.63841 11.4505C3.51709 11.3298 3.44917 11.1656 3.44981 10.9946V8.5554C3.44924 8.38434 3.51709 8.22011 3.63841 8.09943L5.79926 5.93858C5.92059 5.81826 6.08439 5.75048 6.25524 5.74998H8.55524C8.91109 5.75026 9.19953 6.0387 9.19981 6.39455C9.19845 6.8708 9.38769 7.32778 9.72536 7.66358L10.7362 8.67443C10.8575 8.79511 10.9255 8.95934 10.9248 9.1304V11.4304Z" fill="#9A9A9A"/>
<path d="M17.0818 12.8185L14.7818 10.5185C14.5572 10.2939 14.1931 10.294 13.9686 10.5186C13.8608 10.6264 13.8003 10.7726 13.8003 10.925V12.075C13.8003 12.3925 13.5428 12.65 13.2253 12.65C12.2726 12.65 11.5003 13.4223 11.5003 14.375C11.5003 14.6925 11.2428 14.95 10.9253 14.95C9.97255 14.95 9.20025 15.7223 9.20025 16.675C9.20025 16.9925 8.94279 17.25 8.62525 17.25H7.47525C7.1577 17.2501 6.90032 17.5075 6.90039 17.8251C6.90039 17.9776 6.96098 18.1237 7.06872 18.2315L9.36872 20.5315C9.47654 20.6393 9.62273 20.7 9.77525 20.7H10.9253C11.878 20.7 12.6503 19.9277 12.6503 18.975C12.6503 18.6574 12.9077 18.4 13.2253 18.4C14.178 18.4 14.9503 17.6277 14.9503 16.675C14.9503 16.3574 15.2077 16.1 15.5253 16.1C16.478 16.1 17.2503 15.3277 17.2503 14.375V13.225C17.2503 13.0725 17.1896 12.9263 17.0818 12.8185ZM16.1003 14.375C16.1003 14.6925 15.8428 14.95 15.5253 14.95C14.5726 14.95 13.8003 15.7223 13.8003 16.675C13.8003 16.9925 13.5428 17.25 13.2253 17.25C12.2726 17.25 11.5003 18.0223 11.5003 18.975C11.5003 19.2925 11.2428 19.55 10.9253 19.55H10.0133L8.84892 18.3856C9.7079 18.2733 10.3503 17.5413 10.3503 16.675C10.3503 16.3574 10.6077 16.1 10.9253 16.1C11.878 16.1 12.6503 15.3277 12.6503 14.375C12.6503 14.0574 12.9077 13.8 13.2253 13.8C14.0916 13.8001 14.8235 13.1576 14.9359 12.2987L16.1003 13.463V14.375Z" fill="#9A9A9A"/>
<path d="M20.0561 8.31683L19.9572 8.21851L17.0822 5.3435L14.6833 2.94518C13.8234 2.0857 12.4297 2.08591 11.5702 2.94575C10.7107 3.80552 10.711 5.19932 11.5708 6.0588L11.6697 6.15713L14.5447 9.03213L16.9436 11.4305C17.8034 12.2899 19.1972 12.2897 20.0566 11.4299C20.9161 10.57 20.9159 9.17631 20.0561 8.31683ZM12.454 3.69383C12.6422 3.53693 12.8794 3.45068 13.1244 3.45003H13.1267C13.4053 3.45089 13.6724 3.56143 13.8702 3.75765L15.2876 5.17503H12.3194C11.9476 4.72883 12.0078 4.06571 12.454 3.69383ZM13.4637 6.32503H16.4376L18.1626 8.05003H15.1887L13.4637 6.32503ZM19.1723 10.6812C18.984 10.8381 18.7469 10.9244 18.5018 10.925H18.4995C18.2208 10.9241 17.9537 10.8134 17.7561 10.6168L16.3387 9.20003H19.3068C19.6787 9.64623 19.6185 10.3093 19.1723 10.6812Z" fill="#9A9A9A"/>
</svg>
