<svg width="22" height="22" viewBox="0 0 22 22" fill="none" xmlns="http://www.w3.org/2000/svg">
<g clip-path="url(#clip0)">
<path d="M11 22C4.92455 22 0 17.0755 0 11C0 4.92455 4.92455 -9.68575e-07 11 -9.68575e-07C17.0755 -9.68575e-07 22 4.92527 22 11C22 17.0747 17.0755 22 11 22ZM11 1.375C5.68423 1.375 1.375 5.68423 1.375 11C1.375 16.3158 5.68423 20.625 11 20.625C16.3158 20.625 20.625 16.3158 20.625 11C20.625 5.68423 16.3158 1.375 11 1.375ZM15.125 11.6875H11.6875V15.125C11.6875 15.5045 11.3795 15.8125 11 15.8125C10.6205 15.8125 10.3125 15.5045 10.3125 15.125V11.6875H6.875C6.4955 11.6875 6.1875 11.3795 6.1875 11C6.1875 10.6205 6.4955 10.3125 6.875 10.3125H10.3125V6.875C10.3125 6.4955 10.6205 6.1875 11 6.1875C11.3795 6.1875 11.6875 6.4955 11.6875 6.875V10.3125H15.125C15.5045 10.3125 15.8125 10.6205 15.8125 11C15.8125 11.3795 15.5045 11.6875 15.125 11.6875Z" fill="#9A9A9A"/>
</g>
<defs>
<clipPath id="clip0">
<rect width="22" height="22" fill="white" transform="matrix(1 0 0 -1 0 22)"/>
</clipPath>
</defs>
</svg>
