<svg width="279" height="296" viewBox="0 0 279 296" fill="none" xmlns="http://www.w3.org/2000/svg">
<g clip-path="url(#clip0)">
<path d="M245.771 50.0307V57.9457" stroke="#EC2024" stroke-width="0.9147" stroke-miterlimit="10"/>
<path d="M246.995 58.5363C246.995 59.2249 246.446 59.7784 245.771 59.7784C245.096 59.7784 244.544 59.2215 244.544 58.5363C244.544 57.8512 245.092 57.2942 245.771 57.2942C246.446 57.2909 246.995 57.8478 246.995 58.5363Z" fill="#EC2024"/>
<path d="M273.729 179.584C273.736 179.584 273.736 179.584 273.736 179.584C273.736 179.584 274.088 185.328 274.437 188.079C274.787 190.83 275.445 196.804 271.072 197C268.518 196.804 267.357 194.29 267.706 191.265C268.056 188.238 267.896 181.366 267.643 180.441C267.647 180.441 267.647 180.441 267.647 180.441C269.858 180.94 272.216 180.498 273.729 179.584Z" fill="#5A76B8"/>
<path d="M259.682 171.395C259.685 171.395 259.685 171.395 259.682 171.395C259.685 171.395 260.111 172.992 260.383 173.852C260.656 174.716 261.002 177.666 260.034 178.213C259.066 178.767 255.156 179.786 254.537 180.181C253.915 180.573 251.477 184.15 245.515 182.733C243.812 182.105 244.856 179.276 247.237 177.94C249.618 176.603 253.147 174.409 253.164 172.364C254.59 172.944 257.078 173.417 259.682 171.395Z" fill="#5A76B8"/>
<path d="M263.672 110.89C263.779 111.069 263.985 111.862 264.115 112.031C265.043 113.27 263.529 111.423 265.734 110.89C267.45 110.478 273.43 114.998 272.522 113.594C274.138 116.095 272.711 145.274 273.047 150.56C273.433 156.689 273.819 169.65 274.67 178.848C274.417 179.118 274.098 179.364 273.729 179.584C272.216 180.498 269.861 180.94 267.643 180.438C267.274 180.353 266.902 180.242 266.539 180.103C265.608 177.272 262.129 151.535 257.7 126.44L259.778 135.249L259.592 144.258C259.875 154.704 259.466 164.199 260.014 171.125C259.905 171.22 259.791 171.307 259.682 171.395C257.078 173.417 254.59 172.944 253.164 172.364C252.399 172.05 251.943 171.712 251.943 171.712C251.943 171.712 248.8 150.668 247.936 143.127C247.064 135.58 245.571 110.283 245.571 110.283C246.463 113.982 256.669 118.417 263.782 118.677" fill="#002E44"/>
<path d="M249.964 59.3566C249.964 59.3566 247.65 60.413 250.35 64.7975C251.275 66.0902 253.184 68.2032 253.184 68.2032C253.184 68.2032 254.514 69.4925 255.611 69.5533C255.668 71.1363 252.199 75.4802 252.199 75.4802L261.221 78.7104C261.221 78.7104 265.329 79.004 265.674 78.7104C266.02 78.4167 264.69 71.9024 264.69 71.9024L260.699 67.6192L260.643 66.799C260.643 66.799 265.152 63.687 261.511 62.5124C260.896 62.7555 260.626 63.4913 259.562 63.6668C258.338 63.8693 256.712 62.7285 256.712 62.7285C256.712 62.7285 251.202 58.5431 250.623 58.5431C250.044 58.5364 249.964 59.3566 249.964 59.3566Z" fill="#F8B3B0"/>
<path d="M255.611 69.5498C255.611 69.5498 258.408 68.9018 260.104 67.0251C260.104 67.8082 259.05 71.3624 254.793 71.7168C255.315 70.6941 255.611 69.5498 255.611 69.5498Z" stroke="#FADDD2" stroke-width="0.9147" stroke-miterlimit="10"/>
<path d="M252.705 67.6597C252.705 67.6597 248.771 67.4943 244.298 78.1399C240.753 86.2777 243.297 92.8527 243.297 92.8527L251.238 98.7223L249.389 114.535L247.231 116.098L272.522 113.597L271.913 100.626C271.913 100.626 275.758 101.308 278.92 97.4734C278.92 95.5968 277.996 76.4995 269.512 73.1344C266.586 71.8079 262.342 69.3743 262.342 69.3743C262.342 69.3743 262.651 73.293 259.722 73.8398C258.411 73.8398 255.867 74.3056 255.521 69.8874C254.956 69.3845 252.705 68.4461 252.705 67.6597Z" fill="#86AEDC"/>
<path d="M278.614 93.0957C278.614 93.0957 271.823 99.1476 264.111 95.7251" stroke="#FADDD2" stroke-width="0.9147" stroke-miterlimit="10"/>
<path d="M255.754 72.4931C255.561 72.5302 255.365 72.564 255.166 72.5876C253.047 72.8509 251.182 70.2317 250.28 67.8352C249.998 67.0859 249.815 66.3569 249.745 65.7426C249.452 63.1706 247.779 58.9954 250.26 55.421C251.913 56.7677 255.412 56.1298 257.35 56.0994C259.293 56.069 261.235 57.8782 261.521 61.6349L262.292 61.5977C262.292 61.5977 262.558 59.4983 264.135 59.2823C264.969 59.1675 265.797 59.8122 265.847 60.8282C265.887 61.7327 265.309 62.931 263.553 64.1562C263.4 66.3434 260.583 71.5514 255.754 72.4931Z" fill="#F9C2BD"/>
<path d="M258.092 128.111C258.092 128.111 259.382 144.18 259.539 147.627C259.652 141.365 259.835 138.979 259.835 138.979L258.092 128.111Z" fill="#184042"/>
<path d="M268.105 100.619C268.105 100.619 269.639 100.67 271.365 100.619C272.582 101.331 272.698 102.182 272.698 102.182L272.259 108.038L271.365 111.461L267.241 112.598L265.152 112.568L265.731 103.522L268.105 100.619Z" fill="#5181C2"/>
<path d="M257.723 96.8422L257.696 98.4927C257.64 98.4624 257.58 98.4354 257.52 98.4117L257.543 96.7612C257.606 96.7815 257.666 96.8085 257.723 96.8422Z" fill="#844735"/>
<path d="M257.543 96.7579L257.52 98.4084C257.454 98.378 257.384 98.3578 257.311 98.3341L257.337 96.6836C257.41 96.7039 257.477 96.7275 257.543 96.7579Z" fill="#8A4A37"/>
<path d="M257.337 96.6836L257.311 98.3341C257.254 98.3173 257.191 98.3004 257.131 98.2903L257.158 96.6364C257.217 96.6499 257.277 96.6668 257.337 96.6836Z" fill="#8F4D3A"/>
<path d="M257.158 96.6364L257.131 98.2903C257.074 98.2768 257.015 98.2667 256.958 98.2599L256.985 96.6094C257.041 96.6162 257.098 96.6263 257.158 96.6364Z" fill="#934E3B"/>
<path d="M256.981 96.6094L256.955 98.2599C256.898 98.2531 256.842 98.2464 256.782 98.243L256.805 96.5925C256.868 96.5959 256.925 96.5993 256.981 96.6094Z" fill="#98523E"/>
<path d="M256.808 96.5925L256.785 98.243C256.725 98.2396 256.665 98.2396 256.606 98.2396L256.632 96.5858C256.689 96.5858 256.749 96.5891 256.808 96.5925Z" fill="#9D5440"/>
<path d="M256.632 96.5858L256.606 98.2396C256.539 98.2396 256.472 98.243 256.409 98.2464L256.436 96.5959C256.499 96.5925 256.562 96.5891 256.632 96.5858Z" fill="#A25742"/>
<path d="M256.433 96.5959L256.406 98.2464C256.33 98.2531 256.25 98.2666 256.17 98.2767L256.197 96.6229C256.28 96.6127 256.353 96.6026 256.433 96.5959Z" fill="#A85A43"/>
<path d="M256.196 96.6263L256.17 98.2801C255.924 98.3274 255.694 98.4118 255.505 98.5299L255.531 96.8794C255.721 96.7545 255.95 96.6701 256.196 96.6263Z" fill="#AD5D45"/>
<path d="M256.792 97.6692L256.765 99.3197L256.409 99.3265L256.433 97.6726L256.792 97.6692Z" fill="#B1B1B1"/>
<path d="M259.592 97.8616L259.569 99.5121L257.7 98.4894L257.723 96.8423L259.592 97.8616Z" fill="#8A4B38"/>
<path d="M256.798 97.8717L256.772 99.5222L256.765 99.3197L256.792 97.6692L256.798 97.8717Z" fill="#808080"/>
<path d="M258.285 98.4827L258.258 100.133L257.899 100.14L257.926 98.4894L258.285 98.4827Z" fill="#B1B1B1"/>
<path d="M260.097 98.5535L260.074 100.207C260.081 99.9542 259.908 99.7011 259.569 99.5154L259.595 97.8649C259.931 98.0472 260.101 98.3003 260.097 98.5535Z" fill="#844735"/>
<path d="M258.302 98.6953L258.275 100.346L258.258 100.133L258.285 98.4827L258.302 98.6953Z" fill="#808080"/>
<path d="M260.097 98.5535L260.074 100.207C260.074 100.234 260.071 100.261 260.068 100.288L260.094 98.6379C260.097 98.6075 260.097 98.5805 260.097 98.5535Z" fill="#939393"/>
<path d="M260.091 98.6345L260.064 100.285C260.061 100.319 260.051 100.356 260.041 100.386L260.064 98.7358C260.077 98.7054 260.084 98.6716 260.091 98.6345Z" fill="#979797"/>
<path d="M260.064 98.7391L260.041 100.39C260.028 100.423 260.011 100.457 259.994 100.491L260.018 98.8404C260.037 98.8066 260.051 98.7729 260.064 98.7391Z" fill="#9D9D9D"/>
<path d="M260.018 98.8404L259.994 100.491C259.968 100.525 259.948 100.562 259.918 100.599L259.941 98.9484C259.971 98.9112 259.994 98.8741 260.018 98.8404Z" fill="#A1A1A1"/>
<path d="M259.941 98.9484L259.918 100.599C259.881 100.639 259.841 100.68 259.795 100.72L259.821 99.0699C259.865 99.0294 259.908 98.9889 259.941 98.9484Z" fill="#A8A7A7"/>
<path d="M259.821 99.0699L259.795 100.72C259.758 100.751 259.718 100.778 259.675 100.808L259.702 99.1543C259.742 99.1273 259.781 99.0969 259.821 99.0699Z" fill="#ADADAD"/>
<path d="M259.702 99.1509L259.675 100.805L253.875 104.548L253.899 102.897L259.702 99.1509Z" fill="#BCBCBC"/>
<path d="M257.863 93.2847L257.7 94.9284C257.69 94.9251 257.683 94.9217 257.673 94.9149L257.836 93.2712C257.843 93.2712 257.853 93.2779 257.863 93.2847Z" fill="#844735"/>
<path d="M257.833 93.2678L257.67 94.9116C257.607 94.8779 257.537 94.8475 257.47 94.8205L257.633 93.1733C257.703 93.2037 257.77 93.2341 257.833 93.2678Z" fill="#8A4A37"/>
<path d="M257.637 93.1767L257.474 94.8238C257.417 94.8036 257.357 94.7833 257.301 94.7664L257.464 93.1193C257.52 93.1362 257.577 93.1531 257.637 93.1767Z" fill="#8F4D3A"/>
<path d="M257.46 93.1193L257.297 94.7664C257.244 94.7496 257.184 94.7327 257.131 94.7226L257.294 93.0754C257.35 93.0856 257.404 93.1024 257.46 93.1193Z" fill="#934E3B"/>
<path d="M257.294 93.0755L257.131 94.7226C257.074 94.7091 257.018 94.7023 256.961 94.6888L257.124 93.0451C257.181 93.0518 257.237 93.0619 257.294 93.0755Z" fill="#98523E"/>
<path d="M257.124 93.045L256.961 94.6888C256.905 94.682 256.845 94.6753 256.785 94.6719L256.948 93.0248C257.005 93.0282 257.065 93.0349 257.124 93.045Z" fill="#9D5440"/>
<path d="M256.945 93.0214L256.782 94.6685C256.715 94.6618 256.652 94.6618 256.586 94.6584L256.749 93.0113C256.815 93.0147 256.882 93.018 256.945 93.0214Z" fill="#A25742"/>
<path d="M256.752 93.0146L256.589 94.6618C256.509 94.6618 256.429 94.6652 256.353 94.6719L256.516 93.0282C256.592 93.018 256.672 93.0146 256.752 93.0146Z" fill="#A85A43"/>
<path d="M256.516 93.025L256.353 94.6687C256.097 94.6924 255.861 94.7565 255.664 94.8611L255.827 93.214C256.02 93.1127 256.26 93.0486 256.516 93.025Z" fill="#AD5D45"/>
<path d="M255.824 93.2172L255.661 94.8643C255.618 94.8846 255.575 94.9116 255.538 94.9386L255.701 93.2949C255.738 93.2645 255.781 93.2409 255.824 93.2172Z" fill="#AD5D45"/>
<path d="M259.835 94.3412L259.668 95.9883L257.7 94.9251L257.863 93.2847L259.835 94.3412Z" fill="#904D3A"/>
<path d="M257.024 94.1049L256.862 95.752L256.499 95.7487L256.665 94.1015L257.024 94.1049Z" fill="#B3B3B4"/>
<path d="M257.051 94.3176L256.888 95.9647L256.862 95.7521L257.025 94.1049L257.051 94.3176Z" fill="#808080"/>
<path d="M260.407 95.1512L260.244 96.795C260.274 96.5081 260.074 96.2009 259.672 95.9849L259.838 94.3412C260.234 94.5572 260.433 94.8643 260.407 95.1512Z" fill="#844735"/>
<path d="M258.591 94.9487L258.425 96.5925L258.075 96.5958L258.238 94.9521L258.591 94.9487Z" fill="#B5B5B6"/>
<path d="M258.637 95.1614L258.471 96.8051L258.425 96.5925L258.591 94.9487L258.637 95.1614Z" fill="#808080"/>
<path d="M260.407 95.1512L260.244 96.795C260.24 96.8254 260.237 96.849 260.23 96.8794L260.393 95.2323C260.397 95.2086 260.403 95.1782 260.407 95.1512Z" fill="#939393"/>
<path d="M260.39 95.2356L260.227 96.8828C260.22 96.9165 260.207 96.9469 260.194 96.9806L260.357 95.3369C260.37 95.2998 260.383 95.2694 260.39 95.2356Z" fill="#979797"/>
<path d="M260.357 95.3335L260.194 96.9772C260.177 97.0076 260.161 97.0413 260.137 97.0717L260.3 95.428C260.324 95.3976 260.34 95.3672 260.357 95.3335Z" fill="#9D9D9D"/>
<path d="M260.3 95.428L260.137 97.0718C260.117 97.1055 260.087 97.1359 260.057 97.1697L260.22 95.5225C260.25 95.4955 260.28 95.4618 260.3 95.428Z" fill="#A1A1A1"/>
<path d="M260.221 95.5259L260.058 97.173C260.018 97.2135 259.974 97.2473 259.925 97.2844L260.088 95.6373C260.137 95.6002 260.181 95.5664 260.221 95.5259Z" fill="#A8A7A7"/>
<path d="M260.091 95.6339L259.928 97.2811C259.921 97.2844 259.915 97.2912 259.905 97.2946L260.067 95.6474C260.077 95.6474 260.084 95.6407 260.091 95.6339Z" fill="#ADADAD"/>
<path d="M260.071 95.6508L259.904 97.2979L254.564 100.994L254.727 99.3467L260.071 95.6508Z" fill="#B9B9BA"/>
<path d="M257.424 89.4403L257.261 91.084C257.251 91.0807 257.241 91.0739 257.231 91.0705L257.394 89.4268C257.404 89.4335 257.414 89.4335 257.424 89.4403Z" fill="#844735"/>
<path d="M257.394 89.4268L257.231 91.0705C257.164 91.0368 257.101 91.0098 257.031 90.9794L257.194 89.3356C257.264 89.3626 257.33 89.3896 257.394 89.4268Z" fill="#8A4A37"/>
<path d="M257.194 89.3357L257.031 90.9794C256.975 90.9558 256.915 90.9389 256.852 90.9187L257.018 89.2715C257.078 89.2918 257.138 89.3154 257.194 89.3357Z" fill="#8F4D3A"/>
<path d="M257.018 89.2749L256.852 90.9221C256.798 90.9052 256.739 90.8917 256.682 90.8782L256.845 89.231C256.901 89.2445 256.961 89.2581 257.018 89.2749Z" fill="#934E3B"/>
<path d="M256.845 89.2311L256.682 90.8782C256.625 90.8647 256.569 90.8545 256.509 90.8444L256.672 89.1973C256.732 89.2074 256.788 89.2175 256.845 89.2311Z" fill="#98523E"/>
<path d="M256.675 89.1973L256.512 90.8444C256.452 90.8376 256.389 90.8275 256.333 90.8241L256.496 89.177C256.556 89.1838 256.615 89.1905 256.675 89.1973Z" fill="#9D5440"/>
<path d="M256.496 89.177L256.333 90.8242C256.263 90.8174 256.2 90.814 256.133 90.814L256.296 89.1669C256.359 89.1703 256.429 89.1737 256.496 89.177Z" fill="#A25742"/>
<path d="M256.296 89.1703L256.133 90.8174C256.053 90.8174 255.97 90.8208 255.897 90.8275L256.06 89.1838C256.137 89.1736 256.213 89.1703 256.296 89.1703Z" fill="#A85A43"/>
<path d="M256.057 89.1806L255.894 90.8244C255.638 90.848 255.402 90.9121 255.205 91.0134L255.368 89.3662C255.565 89.265 255.804 89.2042 256.057 89.1806Z" fill="#AD5D45"/>
<path d="M255.372 89.3694L255.209 91.0165C255.169 91.0402 255.129 91.0638 255.089 91.0908L255.252 89.4437C255.289 89.4167 255.329 89.393 255.372 89.3694Z" fill="#AD5D45"/>
<path d="M259.382 90.4934L259.219 92.1405L257.261 91.0841L257.424 89.4403L259.382 90.4934Z" fill="#904D3A"/>
<path d="M256.579 90.2571L256.416 91.9009L256.063 91.9042L256.226 90.2605L256.579 90.2571Z" fill="#B5B5B6"/>
<path d="M256.626 90.4697L256.463 92.1169L256.416 91.9008L256.579 90.2571L256.626 90.4697Z" fill="#808080"/>
<path d="M259.961 91.3068L259.801 92.954C259.828 92.6671 259.632 92.3599 259.223 92.1405L259.386 90.4934C259.791 90.7128 259.991 91.0199 259.961 91.3068Z" fill="#844735"/>
<path d="M258.152 91.1043L257.989 92.7514L257.636 92.7548L257.799 91.111L258.152 91.1043Z" fill="#B5B5B6"/>
<path d="M258.199 91.3203L258.036 92.964L257.989 92.7514L258.152 91.1043L258.199 91.3203Z" fill="#808080"/>
<path d="M259.961 91.3068L259.801 92.9539C259.798 92.9843 259.791 93.0113 259.785 93.0383L259.948 91.3912C259.954 91.3642 259.961 91.3372 259.961 91.3068Z" fill="#939393"/>
<path d="M259.948 91.3912L259.785 93.0383C259.778 93.0721 259.765 93.1058 259.752 93.1362L259.915 91.4924C259.928 91.4587 259.938 91.4249 259.948 91.3912Z" fill="#979797"/>
<path d="M259.911 91.4925L259.748 93.1362C259.732 93.17 259.715 93.2037 259.692 93.2341L259.855 91.5904C259.878 91.56 259.895 91.5262 259.911 91.4925Z" fill="#9D9D9D"/>
<path d="M259.855 91.5903L259.692 93.2341C259.665 93.2712 259.638 93.305 259.605 93.3387L259.768 91.6916C259.805 91.6578 259.831 91.6241 259.855 91.5903Z" fill="#A1A1A1"/>
<path d="M259.771 91.6916L259.609 93.3387C259.569 93.3758 259.522 93.4163 259.472 93.4535L259.635 91.8064C259.685 91.7692 259.735 91.7321 259.771 91.6916Z" fill="#A8A7A7"/>
<path d="M259.635 91.8064L259.472 93.4535C259.469 93.4535 259.469 93.4535 259.466 93.4569L259.629 91.8098C259.632 91.8098 259.635 91.8064 259.635 91.8064Z" fill="#ADADAD"/>
<path d="M259.629 91.8097L259.469 93.4569L254.115 97.1427L254.278 95.4989L259.629 91.8097Z" fill="#B9B9BA"/>
<path d="M268.055 106.118C267.826 105.415 266.722 104.811 266.722 104.811L232.555 100.278L229.409 102.796L229.954 104.7L232.788 107.863L251.561 117.739L251.956 115.862L268.055 106.118Z" fill="#2799B0"/>
<path d="M251.936 120.182L268.085 110.877L268.079 112.777L251.923 122.396L251.936 120.182Z" fill="#44A9BD"/>
<path d="M267.144 108.71L267.131 111.43L251.936 120.182L251.946 117.938L267.144 108.71Z" fill="#F2F2F2"/>
<path d="M268.092 108.136C268.092 108.136 268.119 107.275 268.095 106.442C268.109 106.33 268.092 106.226 268.055 106.118L251.96 115.862L251.564 117.739L251.95 117.938L268.092 108.136Z" fill="#44A9BD"/>
<path d="M229.412 102.796L229.376 109.689L251.923 122.396L251.96 115.862L229.412 102.796Z" fill="#78CFEC"/>
<path d="M232.023 108.038L232.026 107.265C232.026 107.265 231.896 106.296 233.376 107.272C234.86 108.251 246.798 115.234 246.798 115.234C246.798 115.234 247.5 115.389 247.533 116.338C247.57 117.283 247.53 117.104 247.53 117.104C247.53 117.104 247.447 117.938 246.552 117.239C245.654 116.679 232.708 108.848 232.708 108.848C232.708 108.848 232.023 108.71 232.023 108.038Z" fill="#F2F2F2"/>
<path d="M255.531 96.876L255.508 98.5265L249.708 102.27L249.732 100.619L255.531 96.876Z" fill="#BC644C"/>
<path d="M256.433 97.6726L256.409 99.3265L251.168 102.708L251.191 101.055L256.433 97.6726Z" fill="#BCBCBC"/>
<path d="M256.798 97.8717L256.772 99.5222L251.531 102.908L251.554 101.254L256.798 97.8717Z" fill="#202837"/>
<path d="M249.732 100.619L249.708 102.27C249.665 102.3 249.625 102.327 249.589 102.357L249.612 100.707C249.652 100.677 249.688 100.646 249.732 100.619Z" fill="#AD5D45"/>
<path d="M249.612 100.707L249.589 102.357C249.542 102.398 249.499 102.438 249.466 102.479L249.492 100.828C249.525 100.788 249.565 100.744 249.612 100.707Z" fill="#A85A43"/>
<path d="M249.489 100.828L249.462 102.479C249.432 102.519 249.409 102.553 249.386 102.59L249.412 100.936C249.432 100.903 249.459 100.866 249.489 100.828Z" fill="#A25742"/>
<path d="M249.416 100.936L249.389 102.59C249.366 102.624 249.353 102.661 249.343 102.692L249.362 101.041C249.379 101.004 249.392 100.974 249.416 100.936Z" fill="#9D5440"/>
<path d="M249.362 101.041L249.342 102.692C249.329 102.725 249.322 102.762 249.312 102.793L249.339 101.142C249.346 101.109 249.352 101.075 249.362 101.041Z" fill="#98523E"/>
<path d="M249.339 101.146L249.313 102.796C249.309 102.823 249.306 102.854 249.306 102.881L249.329 101.23C249.329 101.2 249.329 101.173 249.339 101.146Z" fill="#934E3B"/>
<path d="M251.554 101.254L251.531 102.908L251.202 102.914L251.221 101.261L251.554 101.254Z" fill="#1E2433"/>
<path d="M251.221 101.26L251.201 102.914L251.168 102.708L251.191 101.055L251.221 101.26Z" fill="#161B25"/>
<path d="M252.715 102.077L252.691 103.728L252.661 103.522L252.685 101.871L252.715 102.077Z" fill="#161B25"/>
<path d="M257.926 98.4894L257.899 100.14L252.661 103.522L252.685 101.871L257.926 98.4894Z" fill="#BCBCBC"/>
<path d="M249.841 101.925L249.815 103.579C249.469 103.39 249.299 103.134 249.303 102.881L249.326 101.23C249.326 101.483 249.495 101.74 249.841 101.925Z" fill="#838484"/>
<path d="M258.302 98.6953L258.275 100.346L253.037 103.731L253.061 102.077L258.302 98.6953Z" fill="#202837"/>
<path d="M257.926 98.4894L258.285 98.4827L258.302 98.6953L253.06 102.077H252.715L252.685 101.871L257.926 98.4894Z" fill="#263042"/>
<path d="M253.06 102.077L253.037 103.731L252.691 103.728L252.715 102.077H253.06Z" fill="#1E2433"/>
<path d="M255.531 96.876C256.103 96.5081 257.074 96.4879 257.723 96.8423L259.592 97.8616C260.22 98.2059 260.27 98.7864 259.702 99.1543L253.902 102.901C253.33 103.269 252.345 103.299 251.714 102.952L249.845 101.929C249.199 101.578 249.163 100.994 249.735 100.623L255.531 96.876ZM258.302 98.6953L258.285 98.4826L257.926 98.4894L252.685 101.871L252.715 102.077H253.06L258.302 98.6953ZM256.798 97.8717L256.792 97.6692L256.433 97.6726L251.191 101.055L251.221 101.26L251.554 101.254L256.798 97.8717Z" fill="#E1E1E1"/>
<path d="M251.71 102.952L251.687 104.602L249.818 103.579L249.841 101.925L251.71 102.952Z" fill="#8A8A8A"/>
<path d="M253.898 102.897L253.872 104.548C253.682 104.673 253.446 104.757 253.193 104.801L253.22 103.151C253.473 103.107 253.709 103.019 253.898 102.897Z" fill="#ADADAD"/>
<path d="M253.22 103.151L253.194 104.801C253.114 104.815 253.034 104.825 252.954 104.835L252.981 103.181C253.061 103.178 253.14 103.168 253.22 103.151Z" fill="#A8A7A7"/>
<path d="M252.981 103.181L252.954 104.835C252.888 104.838 252.821 104.842 252.755 104.842L252.778 103.191C252.848 103.191 252.914 103.188 252.981 103.181Z" fill="#A1A1A1"/>
<path d="M252.778 103.191L252.755 104.842C252.691 104.842 252.632 104.842 252.572 104.838L252.598 103.184C252.661 103.191 252.718 103.191 252.778 103.191Z" fill="#9D9D9D"/>
<path d="M252.598 103.188L252.572 104.842C252.512 104.838 252.455 104.832 252.399 104.821L252.425 103.171C252.482 103.178 252.538 103.181 252.598 103.188Z" fill="#979797"/>
<path d="M252.425 103.171L252.399 104.821C252.342 104.815 252.282 104.805 252.229 104.791L252.252 103.141C252.309 103.151 252.365 103.164 252.425 103.171Z" fill="#939393"/>
<path d="M252.252 103.14L252.229 104.791C252.169 104.781 252.109 104.764 252.053 104.75L252.079 103.097C252.136 103.113 252.196 103.127 252.252 103.14Z" fill="#8E8E8E"/>
<path d="M252.079 103.097L252.053 104.751C251.983 104.73 251.916 104.71 251.853 104.68L251.88 103.026C251.94 103.053 252.01 103.08 252.079 103.097Z" fill="#898989"/>
<path d="M251.877 103.026L251.85 104.68C251.793 104.656 251.737 104.629 251.684 104.602L251.707 102.952C251.764 102.979 251.82 103.002 251.877 103.026Z" fill="#838484"/>
<path d="M256.433 97.6726L256.792 97.6692L256.798 97.8717L251.554 101.254L251.221 101.261L251.192 101.055L256.433 97.6726Z" fill="#263042"/>
<path d="M267.251 100.828L246.472 89.4673C245.651 89.0184 244.384 89.0353 243.629 89.5213L230.29 98.1316C229.934 98.3645 229.775 98.6616 229.785 98.9518C229.785 98.9383 229.771 98.9248 229.775 98.9147L229.748 100.565C229.745 100.896 229.964 101.227 230.407 101.466L251.185 112.828C251.258 112.868 251.331 112.905 251.411 112.936C251.497 112.973 251.584 113.003 251.677 113.03C251.737 113.047 251.8 113.06 251.863 113.074C251.873 113.077 251.88 113.077 251.886 113.081C251.893 113.084 251.903 113.084 251.91 113.084C251.983 113.101 252.056 113.114 252.133 113.121C252.206 113.131 252.282 113.138 252.355 113.145C252.432 113.148 252.508 113.148 252.588 113.148C252.601 113.148 252.618 113.148 252.628 113.148C252.638 113.148 252.645 113.148 252.655 113.148C252.718 113.145 252.778 113.145 252.844 113.138C252.947 113.131 253.05 113.118 253.15 113.098C253.183 113.094 253.203 113.074 253.233 113.064C253.526 113.006 253.802 112.912 254.025 112.77L267.367 104.16C267.424 104.123 267.477 104.082 267.527 104.042C267.586 103.991 267.643 103.934 267.69 103.88C267.713 103.849 267.729 103.822 267.749 103.795C267.753 103.789 267.759 103.785 267.763 103.775C267.769 103.762 267.779 103.751 267.789 103.738C267.816 103.694 267.836 103.65 267.853 103.606C267.869 103.562 267.879 103.519 267.889 103.475C267.892 103.438 267.896 103.404 267.899 103.367L267.922 101.716C267.919 101.801 267.872 101.882 267.839 101.963C267.996 101.574 267.816 101.136 267.251 100.828ZM229.884 99.259C229.911 99.313 229.914 99.367 229.951 99.4176C229.914 99.367 229.911 99.3096 229.884 99.259ZM267.793 102.125C267.789 102.128 267.789 102.131 267.789 102.131C267.786 102.138 267.779 102.145 267.776 102.152C267.69 102.28 267.563 102.401 267.394 102.509C267.576 102.395 267.706 102.263 267.793 102.125Z" fill="#19478C"/>
<path d="M230.124 96.5452L230.3 98.6176C230.3 98.6176 251.83 111.008 252.548 110.765C255.069 109.908 266.895 102.067 266.895 102.067L266.639 99.0227L230.124 96.5452Z" fill="#EAEAEA"/>
<path d="M243.303 85.6667C244.058 85.1807 245.325 85.1638 246.146 85.6127L266.928 96.9739C267.762 97.4296 267.826 98.1687 267.071 98.6582L253.728 107.272C252.987 107.748 251.72 107.782 250.885 107.326L230.107 95.9647C229.285 95.5192 229.226 94.7563 229.964 94.2804L243.303 85.6667ZM259.591 97.8616L257.722 96.8423C257.074 96.4845 256.103 96.5081 255.531 96.876L249.731 100.619C249.159 100.99 249.196 101.574 249.841 101.925L251.71 102.948C252.342 103.292 253.326 103.262 253.898 102.897L259.698 99.1509C260.27 98.7864 260.223 98.2059 259.591 97.8616Z" fill="#2F60A1"/>
<path d="M267.596 97.8717C267.593 98.0067 267.55 98.1451 267.463 98.2768C267.46 98.2801 267.453 98.2903 267.45 98.297C267.364 98.4253 267.237 98.5502 267.071 98.6582L253.729 107.272C253.509 107.414 253.227 107.505 252.937 107.565C252.751 107.606 252.558 107.643 252.362 107.643C252.349 107.643 252.342 107.646 252.329 107.646C252.079 107.653 251.827 107.63 251.587 107.579C251.581 107.576 251.571 107.572 251.564 107.572C251.321 107.518 251.092 107.437 250.885 107.326L230.107 95.9647C229.665 95.7217 229.442 95.3909 229.449 95.0635L229.426 96.7174C229.419 97.0448 229.642 97.3789 230.084 97.6186L250.862 108.976C250.935 109.017 251.012 109.054 251.088 109.088C251.175 109.121 251.265 109.155 251.354 109.179C251.411 109.196 251.474 109.209 251.537 109.223C251.547 109.226 251.557 109.229 251.564 109.229C251.571 109.233 251.577 109.233 251.584 109.236C251.66 109.25 251.73 109.263 251.807 109.273C251.88 109.28 251.956 109.287 252.029 109.29C252.106 109.297 252.182 109.3 252.262 109.3C252.276 109.297 252.292 109.297 252.306 109.297C252.312 109.297 252.322 109.297 252.329 109.297C252.392 109.294 252.455 109.294 252.518 109.287C252.625 109.28 252.725 109.267 252.828 109.25C252.861 109.243 252.881 109.226 252.914 109.219C253.203 109.159 253.479 109.064 253.702 108.922L266.712 100.525L266.891 102.064L267.799 101.372L267.613 99.1375L267.577 99.1645L267.596 97.8717Z" fill="#19478C"/>
<path d="M255.701 93.2915L255.538 94.9386L250.187 98.6278L250.347 96.9841L255.701 93.2915Z" fill="#B9624A"/>
<path d="M256.665 94.1015L256.499 95.7487L251.687 99.0801L251.85 97.4329L256.665 94.1015Z" fill="#B9B9BA"/>
<path d="M257.051 94.3175L256.888 95.9647L252.063 99.2893L252.226 97.6422L257.051 94.3175Z" fill="#1F2736"/>
<path d="M252.226 97.6422L252.063 99.2893L251.714 99.2927L251.877 97.6456L252.226 97.6422Z" fill="#1F2635"/>
<path d="M251.877 97.6456L251.714 99.2927L251.687 99.0801L251.85 97.433L251.877 97.6456Z" fill="#161B25"/>
<path d="M250.347 96.984L250.184 98.6312C250.181 98.6312 250.181 98.6345 250.177 98.6345L250.34 96.9908C250.344 96.984 250.347 96.984 250.347 96.984Z" fill="#AD5D45"/>
<path d="M250.343 96.9874L250.181 98.6312C250.127 98.6683 250.084 98.7054 250.044 98.7459L250.207 97.1022C250.247 97.0617 250.294 97.0211 250.343 96.9874Z" fill="#A85A43"/>
<path d="M250.207 97.1022L250.044 98.7459C250.014 98.7797 249.988 98.8134 249.961 98.8472L250.124 97.2001C250.147 97.1697 250.174 97.1326 250.207 97.1022Z" fill="#A25742"/>
<path d="M250.121 97.2L249.958 98.8472C249.938 98.8776 249.918 98.9113 249.901 98.9484L250.064 97.3013C250.081 97.2675 250.101 97.2338 250.121 97.2Z" fill="#9D5440"/>
<path d="M250.064 97.3013L249.901 98.9484C249.888 98.9822 249.875 99.0126 249.865 99.0463L250.031 97.3992C250.041 97.3655 250.051 97.3351 250.064 97.3013Z" fill="#98523E"/>
<path d="M250.031 97.4026L249.865 99.0497C249.858 99.0801 249.855 99.1037 249.851 99.1341L250.014 97.4869C250.018 97.4599 250.024 97.4296 250.031 97.4026Z" fill="#934E3B"/>
<path d="M258.238 94.9521L258.075 96.5958L253.25 99.9239L253.413 98.2767L258.238 94.9521Z" fill="#B9B9BA"/>
<path d="M258.638 95.1614L258.471 96.8051L253.636 100.137L253.799 98.4928L258.638 95.1614Z" fill="#1F2736"/>
<path d="M253.799 98.4928L253.636 100.137L253.287 100.143L253.446 98.4961L253.799 98.4928Z" fill="#1F2635"/>
<path d="M253.446 98.4961L253.287 100.143L253.25 99.9239L253.413 98.2767L253.446 98.4961Z" fill="#161B25"/>
<path d="M259.835 94.3412C260.49 94.6922 260.609 95.293 260.071 95.6474L254.73 99.3467C254.697 99.3703 254.66 99.3906 254.623 99.4108C254.068 99.7045 253.183 99.691 252.555 99.3535L250.586 98.2936C249.928 97.9426 249.821 97.3519 250.35 96.984L255.701 93.2915C255.737 93.2645 255.781 93.2408 255.824 93.2172C256.369 92.9269 257.241 92.9472 257.863 93.2813L259.835 94.3412ZM258.637 95.1614L258.591 94.9453L258.238 94.9487L253.413 98.2734L253.449 98.4928L253.799 98.4894L258.637 95.1614ZM251.876 97.6456L252.226 97.6422L257.051 94.3175L257.024 94.1049L256.662 94.1015L251.847 97.4329L251.876 97.6456Z" fill="#E1E1E1"/>
<path d="M250.586 98.2902L250.423 99.9374C250.021 99.7213 249.825 99.4176 249.855 99.1307L250.018 97.4836C249.988 97.7704 250.181 98.0742 250.586 98.2902Z" fill="#838484"/>
<path d="M252.555 99.3501L252.392 100.994L250.42 99.9374L250.586 98.2903L252.555 99.3501Z" fill="#90908F"/>
<path d="M254.727 99.3467L254.564 100.994C254.53 101.017 254.494 101.034 254.457 101.055C254.254 101.163 254.008 101.227 253.749 101.254L253.912 99.6066C254.171 99.5796 254.417 99.5155 254.62 99.4075C254.657 99.3906 254.693 99.3704 254.727 99.3467Z" fill="#ADADAD"/>
<path d="M253.915 99.6066L253.752 101.254C253.672 101.261 253.593 101.264 253.51 101.264L253.672 99.6201C253.752 99.6201 253.835 99.6134 253.915 99.6066Z" fill="#A8A7A7"/>
<path d="M253.672 99.6202L253.509 101.264C253.446 101.264 253.38 101.261 253.31 101.254L253.473 99.61C253.539 99.6134 253.606 99.6202 253.672 99.6202Z" fill="#A1A1A1"/>
<path d="M253.473 99.61L253.31 101.254C253.253 101.25 253.19 101.244 253.134 101.237L253.297 99.5897C253.353 99.5965 253.416 99.6032 253.473 99.61Z" fill="#9D9D9D"/>
<path d="M253.297 99.5898L253.134 101.237C253.074 101.227 253.021 101.217 252.964 101.203L253.127 99.556C253.184 99.5729 253.237 99.5796 253.297 99.5898Z" fill="#979797"/>
<path d="M253.127 99.556L252.964 101.203C252.908 101.193 252.851 101.176 252.794 101.159L252.961 99.5155C253.014 99.5323 253.07 99.5458 253.127 99.556Z" fill="#939393"/>
<path d="M252.961 99.5155L252.795 101.159C252.735 101.142 252.678 101.122 252.618 101.102L252.781 99.4547C252.841 99.475 252.898 99.4986 252.961 99.5155Z" fill="#8E8E8E"/>
<path d="M252.781 99.4547L252.618 101.102C252.548 101.078 252.485 101.044 252.419 101.011L252.582 99.3635C252.648 99.4007 252.715 99.4277 252.781 99.4547Z" fill="#898989"/>
<path d="M252.585 99.3677L252.422 101.015C252.412 101.008 252.405 101.005 252.392 100.998L252.555 99.3542C252.565 99.3542 252.575 99.361 252.585 99.3677Z" fill="#838484"/>
<path d="M267.018 93.5682C267.889 94.034 268.042 94.7968 267.337 95.2694L255.049 103.758C255.003 103.789 254.953 103.816 254.906 103.843C254.191 104.224 253.044 104.2 252.232 103.765L230.37 91.965C229.502 91.4992 229.362 90.733 230.041 90.2571L242.342 81.775C242.392 81.7413 242.449 81.7075 242.502 81.6772C243.207 81.3025 244.344 81.3295 245.159 81.7683L267.018 93.5682ZM260.071 95.6508C260.61 95.293 260.493 94.6956 259.835 94.3445L257.863 93.2847C257.241 92.9506 256.369 92.9303 255.824 93.2206C255.781 93.2442 255.738 93.2678 255.701 93.2948L250.347 96.984C249.818 97.3485 249.924 97.9392 250.583 98.2936L252.552 99.3534C253.18 99.691 254.065 99.7045 254.62 99.4108C254.657 99.3939 254.693 99.3703 254.727 99.3467L260.071 95.6508Z" fill="#CC6F55"/>
<path d="M256.665 94.1015L257.025 94.1049L257.051 94.3175L252.226 97.6422L251.877 97.6456L251.85 97.4329L256.665 94.1015Z" fill="#263042"/>
<path d="M258.238 94.9521L258.591 94.9487L258.637 95.1614L253.799 98.4928L253.446 98.4961L253.413 98.2767L258.238 94.9521Z" fill="#263042"/>
<path d="M255.252 89.4437L255.089 91.0908L249.735 94.78L249.898 93.1328L255.252 89.4437Z" fill="#B9624A"/>
<path d="M256.226 90.2605L256.063 91.9043L251.238 95.2323L251.401 93.5852L256.226 90.2605Z" fill="#B9B9BA"/>
<path d="M256.626 90.4698L256.463 92.1169L251.627 95.4449L251.79 93.8012L256.626 90.4698Z" fill="#1F2736"/>
<path d="M251.79 93.8012L251.627 95.4449H251.285L251.448 93.7978L251.79 93.8012Z" fill="#1E2634"/>
<path d="M251.448 93.7978L251.285 95.4449L251.238 95.2323L251.401 93.5851L251.448 93.7978Z" fill="#161B25"/>
<path d="M249.898 93.1328L249.735 94.78C249.735 94.78 249.731 94.78 249.731 94.7833L249.894 93.1362C249.898 93.1362 249.898 93.1328 249.898 93.1328Z" fill="#AD5D45"/>
<path d="M249.895 93.1362L249.732 94.7833C249.682 94.8171 249.635 94.8576 249.595 94.8947L249.761 93.251C249.798 93.2105 249.845 93.1733 249.895 93.1362Z" fill="#A85A43"/>
<path d="M249.761 93.251L249.595 94.8947C249.565 94.9251 249.535 94.9589 249.515 94.996L249.678 93.3489C249.698 93.3151 249.728 93.2814 249.761 93.251Z" fill="#A25742"/>
<path d="M249.678 93.3489L249.515 94.996C249.492 95.0264 249.475 95.0601 249.459 95.0939L249.622 93.4468C249.635 93.413 249.655 93.3793 249.678 93.3489Z" fill="#9D5440"/>
<path d="M249.618 93.4434L249.456 95.0905C249.442 95.1243 249.429 95.1547 249.419 95.1884L249.582 93.5413C249.595 93.5109 249.605 93.4771 249.618 93.4434Z" fill="#98523E"/>
<path d="M249.585 93.5446L249.422 95.1918C249.416 95.2188 249.409 95.2458 249.409 95.2728L249.572 93.6256C249.572 93.5986 249.582 93.5682 249.585 93.5446Z" fill="#934E3B"/>
<path d="M257.799 91.111L257.636 92.7548L252.811 96.0794L252.974 94.4357L257.799 91.111Z" fill="#B9B9BA"/>
<path d="M258.199 91.3203L258.036 92.9641L253.2 96.2954L253.36 94.6483L258.199 91.3203Z" fill="#1F2736"/>
<path d="M253.36 94.6483L253.2 96.2955H252.858L253.02 94.6483H253.36Z" fill="#1E2634"/>
<path d="M253.021 94.6483L252.858 96.2955L252.811 96.0795L252.974 94.4357L253.021 94.6483Z" fill="#161B25"/>
<path d="M250.157 94.4424L249.994 96.0896C249.582 95.8668 249.379 95.5596 249.406 95.2727L249.569 93.6256C249.545 93.9159 249.745 94.2197 250.157 94.4424Z" fill="#838484"/>
<path d="M252.119 95.509L251.956 97.1528L249.994 96.0896L250.157 94.4424L252.119 95.509Z" fill="#90908F"/>
<path d="M254.278 95.4989L254.115 97.1427C254.115 97.146 254.111 97.146 254.111 97.146L254.274 95.5023C254.274 95.5023 254.274 95.4989 254.278 95.4989Z" fill="#A8A7A7"/>
<path d="M254.271 95.5023L254.108 97.146C254.071 97.1697 254.032 97.1967 253.992 97.2169C253.795 97.3216 253.556 97.3857 253.3 97.4093L253.466 95.7622C253.722 95.7386 253.958 95.6744 254.158 95.5698C254.195 95.5495 254.234 95.5293 254.271 95.5023Z" fill="#ADADAD"/>
<path d="M253.463 95.7655L253.297 97.4127C253.22 97.4194 253.144 97.4228 253.064 97.4228L253.227 95.779C253.306 95.7757 253.386 95.7723 253.463 95.7655Z" fill="#A8A7A7"/>
<path d="M253.227 95.7757L253.064 97.4194C252.997 97.4194 252.934 97.416 252.868 97.4127L253.031 95.7655C253.097 95.7723 253.164 95.7757 253.227 95.7757Z" fill="#A1A1A1"/>
<path d="M253.03 95.7689L252.868 97.4161C252.808 97.4093 252.748 97.4059 252.691 97.3958L252.854 95.752C252.914 95.7554 252.974 95.7622 253.03 95.7689Z" fill="#9D9D9D"/>
<path d="M252.854 95.7487L252.691 97.3924C252.635 97.3857 252.578 97.3755 252.525 97.362L252.688 95.7149C252.745 95.7284 252.798 95.7385 252.854 95.7487Z" fill="#979797"/>
<path d="M252.688 95.7149L252.525 97.3621C252.468 97.3486 252.412 97.3351 252.355 97.3182L252.522 95.6711C252.575 95.6913 252.631 95.7048 252.688 95.7149Z" fill="#939393"/>
<path d="M252.522 95.671L252.355 97.3181C252.299 97.3013 252.239 97.281 252.182 97.2608L252.345 95.6136C252.402 95.6339 252.462 95.6541 252.522 95.671Z" fill="#8E8E8E"/>
<path d="M252.345 95.6135L252.182 97.2606C252.112 97.2336 252.046 97.2033 251.983 97.1695L252.146 95.5258C252.212 95.5561 252.275 95.5865 252.345 95.6135Z" fill="#898989"/>
<path d="M252.146 95.5261L251.983 97.1698C251.973 97.1665 251.963 97.1631 251.953 97.1563L252.116 95.5126C252.129 95.5126 252.136 95.5159 252.146 95.5261Z" fill="#838484"/>
<path d="M266.356 91.6714L266.692 93.9294L267.58 93.2071L267.32 90.9794L266.356 91.6714Z" fill="#F58F75"/>
<path d="M267.74 94.7732C267.733 94.7901 267.73 94.807 267.723 94.8205C267.706 94.861 267.686 94.8981 267.663 94.9353C267.656 94.9488 267.65 94.9589 267.643 94.9724C267.61 95.0196 267.57 95.0669 267.523 95.1141C267.487 95.1513 267.444 95.185 267.4 95.2154C267.377 95.2323 267.36 95.2525 267.334 95.2694L255.046 103.758C254.999 103.789 254.949 103.816 254.903 103.843C254.786 103.903 254.657 103.951 254.52 103.991C254.484 104.001 254.451 104.011 254.414 104.021C254.301 104.048 254.181 104.072 254.061 104.086C254.028 104.089 253.998 104.096 253.965 104.099C253.945 104.099 253.928 104.099 253.909 104.102C253.819 104.109 253.729 104.113 253.636 104.109C253.606 104.109 253.576 104.106 253.549 104.106C253.466 104.102 253.383 104.096 253.3 104.086C253.27 104.082 253.243 104.079 253.213 104.075C253.114 104.062 253.014 104.042 252.914 104.018C252.894 104.015 252.874 104.008 252.854 104.001C252.768 103.978 252.685 103.954 252.602 103.924C252.578 103.917 252.555 103.907 252.528 103.9C252.425 103.859 252.322 103.816 252.226 103.765L230.37 91.965C229.838 91.6781 229.579 91.2798 229.615 90.9052L229.452 92.5489C229.416 92.9236 229.675 93.3253 230.207 93.6088L252.063 105.409C252.073 105.415 252.086 105.419 252.093 105.422C252.176 105.466 252.262 105.507 252.352 105.54C252.359 105.544 252.365 105.544 252.372 105.547C252.389 105.554 252.409 105.557 252.425 105.564C252.475 105.581 252.528 105.601 252.582 105.618C252.618 105.628 252.658 105.638 252.695 105.648C252.711 105.652 252.725 105.658 252.741 105.662C252.761 105.665 252.781 105.672 252.801 105.679C252.874 105.692 252.947 105.709 253.021 105.719C253.037 105.723 253.051 105.723 253.067 105.726C253.08 105.729 253.097 105.729 253.11 105.729C253.157 105.736 253.207 105.743 253.253 105.746C253.293 105.75 253.33 105.75 253.37 105.75C253.406 105.75 253.44 105.753 253.476 105.753C253.489 105.753 253.503 105.753 253.516 105.753C253.566 105.753 253.613 105.75 253.659 105.746C253.712 105.743 253.769 105.743 253.822 105.739C253.825 105.739 253.825 105.739 253.829 105.739C253.925 105.729 254.022 105.716 254.115 105.699C254.135 105.696 254.155 105.689 254.175 105.685C254.258 105.669 254.341 105.645 254.417 105.618C254.437 105.611 254.454 105.604 254.474 105.598C254.567 105.564 254.657 105.527 254.74 105.483C254.79 105.456 254.84 105.429 254.886 105.399L267.174 96.9098C267.181 96.903 267.188 96.8997 267.198 96.8929C267.204 96.8895 267.207 96.8828 267.214 96.8794C267.271 96.8389 267.324 96.795 267.367 96.7511C267.367 96.7511 267.37 96.7478 267.374 96.7478C267.414 96.7073 267.45 96.6634 267.48 96.6195C267.493 96.5993 267.503 96.579 267.513 96.5588C267.527 96.5385 267.54 96.5183 267.55 96.4946C267.553 96.4845 267.557 96.4744 267.56 96.4676C267.567 96.4508 267.573 96.4305 267.58 96.4136C267.583 96.4001 267.593 96.3832 267.597 96.3697C267.603 96.3326 267.61 96.2989 267.617 96.2617L267.779 94.6146C267.77 94.672 267.756 94.7226 267.74 94.7732Z" fill="#F58F75"/>
<path d="M229.768 89.5719L230.008 91.6376C230.008 91.6376 251.913 103.343 252.618 103.076C255.106 102.138 266.689 93.9294 266.689 93.9294L266.336 90.8917L229.768 89.5719Z" fill="#E2E2E2"/>
<path d="M266.579 89.7137C267.447 90.1795 267.59 90.9457 266.908 91.4216L254.594 99.9104C254.544 99.9441 254.49 99.9745 254.434 100.005C253.729 100.38 252.592 100.353 251.777 99.9171L229.921 88.1172C229.053 87.6514 228.91 86.8818 229.602 86.4161L241.89 77.9273C241.936 77.8969 241.986 77.8665 242.04 77.8395C242.761 77.4547 243.912 77.4783 244.723 77.9138L266.579 89.7137ZM259.628 91.8097C260.157 91.4418 260.051 90.8545 259.382 90.4934L257.424 89.4403C256.802 89.1061 255.917 89.0791 255.372 89.3694C255.332 89.393 255.292 89.4167 255.252 89.4437L249.898 93.1328C249.369 93.5007 249.489 94.0847 250.157 94.4424L252.116 95.509C252.738 95.8432 253.609 95.8634 254.155 95.5732C254.194 95.5495 254.238 95.5259 254.274 95.4989L259.628 91.8097Z" fill="#FAC7BA"/>
<path d="M259.382 90.4934C260.054 90.8546 260.157 91.4419 259.628 91.8098L254.278 95.4989C254.238 95.5259 254.198 95.5496 254.158 95.5732C253.612 95.8635 252.741 95.8432 252.119 95.5091L250.161 94.4425C249.492 94.0813 249.372 93.4974 249.901 93.1329L255.255 89.4437C255.295 89.4167 255.332 89.3931 255.375 89.3694C255.92 89.0792 256.808 89.1062 257.427 89.4403L259.382 90.4934ZM258.198 91.3204L258.152 91.1043L257.799 91.1111L252.974 94.4357L253.021 94.6484L253.36 94.6517L258.198 91.3204ZM251.448 93.7978H251.787L256.622 90.4664L256.576 90.2538L256.223 90.2571L251.401 93.5818L251.448 93.7978Z" fill="#E1E1E1"/>
<path d="M256.226 90.2605L256.579 90.2571L256.625 90.4698L251.79 93.8011L251.448 93.7978L251.401 93.5851L256.226 90.2605Z" fill="#263042"/>
<path d="M257.799 91.1111L258.152 91.1043L258.198 91.3204L253.36 94.6484H253.021L252.974 94.4357L257.799 91.1111Z" fill="#263042"/>
<path d="M267.297 90.9321C267.294 90.9423 267.291 90.9558 267.284 90.9659C267.267 91.0098 267.244 91.0536 267.217 91.0975C267.214 91.1043 267.207 91.1144 267.204 91.1212C267.178 91.1617 267.144 91.2022 267.108 91.2393C267.098 91.2494 267.091 91.2595 267.084 91.2663C267.035 91.3169 266.975 91.3675 266.911 91.4114C266.908 91.4148 266.908 91.4148 266.908 91.4148L254.594 99.9036C254.544 99.9373 254.49 99.9677 254.434 99.9981C254.354 100.042 254.264 100.076 254.175 100.109C254.155 100.116 254.135 100.123 254.115 100.13C254.032 100.157 253.948 100.18 253.862 100.197C253.849 100.201 253.839 100.204 253.825 100.204C253.722 100.224 253.616 100.238 253.509 100.248C253.496 100.248 253.483 100.248 253.47 100.251C253.14 100.275 252.791 100.244 252.462 100.163C252.449 100.16 252.435 100.157 252.419 100.153C252.319 100.126 252.219 100.096 252.123 100.062C252.113 100.059 252.103 100.055 252.089 100.052C251.983 100.012 251.877 99.9644 251.78 99.9103L229.921 88.1172C229.389 87.8303 229.13 87.4354 229.166 87.0607L229.003 88.7078C228.967 89.0825 229.226 89.4774 229.758 89.7609L251.614 101.568C251.624 101.571 251.637 101.578 251.647 101.584C251.734 101.628 251.82 101.669 251.91 101.703C251.913 101.703 251.916 101.706 251.92 101.706C251.936 101.713 251.953 101.716 251.97 101.723C252.026 101.743 252.083 101.763 252.139 101.78C252.169 101.787 252.199 101.797 252.232 101.804C252.256 101.811 252.279 101.817 252.306 101.824C252.326 101.827 252.342 101.834 252.362 101.838C252.435 101.851 252.508 101.868 252.582 101.878C252.592 101.878 252.598 101.882 252.608 101.882C252.628 101.885 252.645 101.885 252.665 101.888C252.715 101.895 252.764 101.902 252.814 101.905C252.851 101.909 252.888 101.909 252.921 101.909C252.957 101.912 252.991 101.912 253.027 101.912C253.041 101.912 253.054 101.912 253.07 101.912C253.14 101.912 253.213 101.909 253.283 101.905C253.303 101.905 253.323 101.905 253.34 101.902C253.353 101.902 253.366 101.902 253.376 101.902C253.406 101.898 253.433 101.892 253.46 101.885C253.573 101.871 253.679 101.851 253.785 101.824C253.822 101.814 253.859 101.804 253.895 101.794C254.028 101.753 254.155 101.709 254.268 101.649C254.321 101.618 254.377 101.588 254.427 101.551L266.742 93.0653C266.742 93.0619 266.742 93.0619 266.745 93.0619C266.768 93.0451 266.788 93.0248 266.812 93.0079C266.855 92.9742 266.898 92.937 266.935 92.8999C266.971 92.8628 267.005 92.8257 267.028 92.7852C267.031 92.7818 267.031 92.7784 267.035 92.775C267.045 92.7582 267.054 92.7413 267.064 92.7244C267.078 92.7008 267.094 92.6805 267.104 92.6569C267.111 92.6434 267.114 92.6265 267.121 92.613C267.128 92.5961 267.131 92.5826 267.138 92.5658C267.141 92.5523 267.148 92.5388 267.151 92.5253C267.161 92.4881 267.168 92.451 267.171 92.4139L267.334 90.7701C267.331 90.8309 267.317 90.8815 267.297 90.9321Z" fill="#F58F75"/>
<path d="M249.243 59.6941C249.243 59.6941 247.537 57.193 249.619 53.4431C252.339 50.5538 257.494 49.7708 257.494 49.7708L262.568 51.8803V55.0835L264.71 57.8174C264.71 57.8174 266.755 63.1267 261.847 67.2715C261.361 66.7653 261.301 65.9451 261.301 65.9451L257.45 63.9132L252.419 59.7717L249.243 59.6941Z" fill="black"/>
<path d="M248.524 56.167C248.524 56.167 255.016 61.3919 258.255 60.9227C260.49 60.3759 263.267 59.8258 264.733 58.1044C264.5 57.166 264.371 55.367 264.371 55.367V51.607L250.234 49.5717L249.386 51.4517L248.524 56.167Z" fill="#425270"/>
<path d="M245.146 49.575L257.387 58.5364L268.355 52.3124L256.326 43L245.146 49.575Z" fill="#576C93"/>
<path d="M271.364 100.619C271.73 101.524 272.123 102.709 272.691 103.579C269.698 105.21 265.671 112.632 263.3 114.684C262.026 115.683 261.448 115.859 261.448 115.859C261.448 115.859 256.885 116.237 257.986 117.519C259.712 119.527 255.192 118.518 255.491 120.27C256.476 120.739 261.092 123.203 263.702 118.498C263.819 117.968 276.915 112.176 278.913 103.65C278.611 100.801 279.199 99.8868 278.913 97.4633C278.917 97.4701 275.392 101.055 271.364 100.619Z" fill="#F9C2BD"/>
</g>
<g clip-path="url(#clip1)">
<path d="M0.00627489 35.3949C-0.159395 40.4183 2.77358 41.2447 2.77358 41.2447C2.77358 41.2447 47.4329 67.1353 51.5828 69.4002C56.0641 71.665 56.8945 66.8048 56.8945 66.8048C56.8945 66.8048 56.9333 49.5512 56.9783 40.6183L0.00627489 7.35364C0.00627489 15.7417 0.00627489 31.6201 0.00627489 35.3949Z" fill="#9DBDE3"/>
<path d="M15.1844 41.8017C11.5131 41.8017 7.16882 38.8513 4.37288 34.0727C0.771093 27.9086 1.08812 21.0039 5.07851 18.6799C9.07095 16.36 15.2539 19.4838 18.8557 25.6438C20.5942 28.6167 21.4839 31.8487 21.3612 34.744C21.2365 37.6658 20.0952 39.9001 18.148 41.0345C17.2542 41.5548 16.2479 41.8017 15.1844 41.8017ZM8.05648 18.2392C7.04814 18.2392 6.09503 18.4718 5.24623 18.9656C1.41332 21.1978 1.14948 27.9005 4.65922 33.9054C8.17102 39.9082 14.1474 42.977 17.9803 40.7468C19.8272 39.6715 20.9092 37.5353 21.0299 34.7297C21.1505 31.8976 20.2772 28.7289 18.5694 25.8091C15.8368 21.1345 11.6071 18.2392 8.05648 18.2392Z" fill="#F3F5F7"/>
<path d="M14.2887 39.2634C11.3598 39.2634 7.94412 36.9802 5.76791 33.2606C2.94129 28.4228 3.26445 22.9606 6.48786 21.0855C8.09752 20.1469 10.1469 20.2224 12.2577 21.2977C14.2723 22.324 16.1213 24.1543 17.463 26.4518C18.8068 28.7493 19.494 31.2569 19.3978 33.5095C19.2976 35.8702 18.3547 37.6882 16.743 38.6248C15.9985 39.0594 15.1661 39.2634 14.2887 39.2634ZM8.97904 21.7609C8.31023 21.7609 7.69459 21.916 7.15667 22.2302C4.56731 23.738 4.45891 28.3861 6.91533 32.5934C9.37583 36.7966 13.4828 38.99 16.0742 37.4822C17.281 36.7803 17.9907 35.3499 18.0725 33.4544C18.1584 31.4507 17.5346 29.2022 16.3176 27.121C15.1027 25.0398 13.446 23.3912 11.6564 22.4791C10.7155 22.0017 9.80739 21.7609 8.97904 21.7609Z" fill="#F3F5F7"/>
<path d="M9.69263 25.0684V32.0813H14.8939L9.69263 25.0684Z" fill="#ED2726"/>
<path d="M46.2831 41.2998C46.1686 41.2998 46.0541 41.2712 45.9498 41.212L25.9855 29.6613C25.6705 29.4777 25.5601 29.0716 25.7442 28.7554C25.9282 28.4371 26.3373 28.331 26.6523 28.5146L46.6165 40.0653C46.9315 40.2489 47.042 40.6529 46.8579 40.9712C46.7331 41.1814 46.5102 41.2998 46.2831 41.2998Z" fill="white"/>
<path d="M36.5843 41.5895C36.4657 41.5895 36.3471 41.5589 36.2407 41.4936L25.2697 34.8684C24.9568 34.6787 24.8566 34.2726 25.0447 33.9605C25.2349 33.6462 25.646 33.5483 25.9569 33.736L36.928 40.3612C37.2409 40.5509 37.3411 40.959 37.1529 41.2712C37.0282 41.4752 36.8093 41.5895 36.5843 41.5895Z" fill="white"/>
<path d="M24.8649 41.2549C24.8649 41.2549 24.7278 39.1696 26.6136 40.1857C28.5014 41.2019 35.5577 45.2113 35.5577 45.2113C35.5577 45.2113 37.0631 45.6397 36.9526 48.1249C36.8442 50.6122 36.9526 54.7542 36.9526 54.7542C36.9526 54.7542 37.0058 56.7314 35.3389 55.7173C33.8335 54.7012 26.1207 50.3694 26.1207 50.3694C26.1207 50.3694 24.8874 50.2755 24.8608 47.9556C24.8362 45.6397 24.8649 41.2549 24.8649 41.2549Z" fill="#6D85C2"/>
<path d="M24.3576 41.0345C24.3576 41.0345 24.2206 38.9492 26.1084 39.9653C27.9962 40.9794 35.0546 44.9909 35.0546 44.9909C35.0546 44.9909 36.5579 45.4173 36.4495 47.9046C36.3411 50.3898 36.4495 54.5338 36.4495 54.5338C36.4495 54.5338 36.5047 56.511 34.8358 55.4948C33.3325 54.4787 25.6155 50.147 25.6155 50.147C25.6155 50.147 24.3822 50.0531 24.3556 47.7352C24.327 45.4193 24.3576 41.0345 24.3576 41.0345Z" fill="white"/>
<path d="M38.8955 49.0839C38.8955 49.0839 38.7585 46.9986 40.6463 48.0147C42.5362 49.0308 49.5945 53.0402 49.5945 53.0402C49.5945 53.0402 51.0958 53.4687 50.9874 55.9539C50.879 58.4391 50.9874 62.5832 50.9874 62.5832C50.9874 62.5832 51.0426 64.5603 49.3757 63.5442C47.8724 62.5301 40.1575 58.1984 40.1575 58.1984C40.1575 58.1984 38.9221 58.1025 38.8955 55.7866C38.8669 53.4687 38.8955 49.0839 38.8955 49.0839Z" fill="#6D85C2"/>
<path d="M38.413 48.8656C38.413 48.8656 38.2739 46.7803 40.1617 47.7964C42.0475 48.8105 49.1058 52.8219 49.1058 52.8219C49.1058 52.8219 50.6091 53.2484 50.5007 55.7356C50.3923 58.2208 50.5007 62.3649 50.5007 62.3649C50.5007 62.3649 50.5539 64.342 48.887 63.3259C47.3816 62.3098 39.6688 57.978 39.6688 57.978C39.6688 57.978 38.4334 57.8842 38.4068 55.5663C38.3843 53.2504 38.413 48.8656 38.413 48.8656Z" fill="white"/>
<path d="M53.8527 29.6511C53.8527 29.6511 6.86991 2.60151 3.49311 0.612123C0.118351 -1.37319 0.00585938 2.10365 0.00585938 2.10365C0.00585938 2.10365 0.00585938 4.20527 0.00585938 7.35156L56.9779 40.6182C56.9861 38.8227 56.9963 37.3556 57.0045 36.4415C57.1722 31.1977 53.8527 29.6511 53.8527 29.6511Z" fill="#5984C1"/>
<path d="M5.56552 5.60083C6.12184 6.50881 6.20979 7.4678 5.76187 7.74121C5.31395 8.01463 4.49787 7.50045 3.9395 6.59451C3.38522 5.68653 3.29727 4.72958 3.74724 4.45617C4.19312 4.18071 5.00715 4.69489 5.56552 5.60083Z" fill="#EC2024"/>
<path d="M8.88507 7.31888C9.4414 8.22686 9.52934 9.18585 9.07938 9.45926C8.63145 9.73267 7.81742 9.21849 7.25701 8.31255C6.70273 7.40662 6.61478 6.44763 7.06475 6.17422C7.51471 5.89672 8.32875 6.4109 8.88507 7.31888Z" fill="#6CBD45"/>
<path d="M12.4276 9.42044C12.9839 10.3284 13.0719 11.2874 12.624 11.5608C12.176 11.8342 11.36 11.3201 10.8036 10.4121C10.2494 9.50614 10.1614 8.54715 10.6093 8.27374C11.0573 8.00032 11.8713 8.51246 12.4276 9.42044Z" fill="#EBE725"/>
<path d="M60.2938 18.133C60.2938 18.133 60.4022 15.9028 63.2554 17.3536C66.8899 19.2511 89.0345 32.0812 89.0345 32.0812C89.0345 32.0812 92.1106 32.9177 91.9981 39.2205C91.8856 45.5254 91.8283 65.3275 91.8283 65.3275C91.8283 65.3275 91.7711 69.7347 88.697 67.6698C85.6229 65.6621 62.6397 52.6076 62.6397 52.6076C62.6397 52.6076 60.124 52.1057 60.2917 46.8067C60.4594 41.5078 60.2938 18.133 60.2938 18.133Z" fill="#63CAE5"/>
<path d="M65.8387 50.7121V42.9586C65.8387 42.9586 66.4544 38.6064 70.7025 39.1655C73.5005 39.6123 80.9352 42.7913 80.9352 42.7913L85.0729 45.6356C85.0729 45.6356 86.6948 46.6966 86.4146 51.4365C86.3594 55.7335 86.4473 59.3573 86.4473 59.3573L86.1916 60.6958L65.8387 50.7121Z" fill="#5669B0"/>
<path d="M70.0869 31.2712C70.0869 31.2712 69.1645 33.5299 69.6676 35.2867C69.8763 36.1661 70.044 37.0027 70.0869 37.7964C70.0869 38.8839 70.633 41.5201 71.8479 41.6038C73.0628 41.6874 73.9014 41.5609 74.5743 40.8917C74.7011 41.6038 73.9873 42.8994 73.9873 42.8994L77.5093 44.1135L78.3479 40.8917C78.3479 40.8917 77.72 39.2185 77.9286 38.0882C78.4318 37.7107 80.5712 36.2477 78.3479 34.6154C77.6771 34.3216 76.8794 35.2846 76.8385 35.7029C76.7137 35.6601 77.1739 31.5181 77.1739 31.5181L70.0869 31.2712Z" fill="#FADDD2"/>
<path d="M66.4811 28.6778C66.4811 28.6778 67.0681 33.9074 70.6331 33.8645C72.6866 33.74 74.1142 33.4054 74.7441 33.0688C75.8343 32.8586 76.7567 34.1155 76.3374 35.3703C77.1576 35.1051 77.8387 34.6052 77.8387 34.6052C77.8387 34.6052 79.6877 35.1969 78.8245 37.3067C77.9307 38.0881 77.9 38.382 77.9 38.382L78.0207 39.7205C78.0207 39.7205 82.2913 38.0045 81.285 32.022C80.7389 29.7205 77.6198 25.8702 72.1834 27.9229C68.5346 29.3879 67.2767 29.1369 66.4811 28.6778Z" fill="#572D0E"/>
<path d="M78.4317 40.1816C78.4317 40.1816 78.3581 42.4403 75.1285 44.1135C75.6215 44.9357 77.5931 46.1212 77.5931 46.1212L80.9065 42.4403C80.9065 42.4403 79.9412 40.2224 78.4317 40.1816Z" fill="white" stroke="#F7F6FA" stroke-width="1.0785" stroke-miterlimit="10"/>
<path d="M71.3632 41.4139L71.7211 44.95C71.7211 44.95 75.8628 44.5949 75.1286 44.1134C73.66 43.1503 74.5743 40.8916 74.5743 40.8916C74.5743 40.8916 73.6866 42.0628 71.3632 41.4139Z" fill="white"/>
<path d="M74.7645 45.4112C74.7645 45.5968 74.6131 45.7458 74.4291 45.7458C74.2429 45.7458 74.0936 45.5968 74.0936 45.4112C74.0936 45.2275 74.2429 45.0765 74.4291 45.0765C74.6131 45.0765 74.7645 45.2275 74.7645 45.4112Z" fill="white"/>
<path d="M74.7645 47.1557C74.7645 47.3413 74.6131 47.4903 74.4291 47.4903C74.2429 47.4903 74.0936 47.3413 74.0936 47.1557C74.0936 46.97 74.2429 46.821 74.4291 46.821C74.6131 46.821 74.7645 46.97 74.7645 47.1557Z" fill="white"/>
<path d="M74.7645 48.7574C74.7645 48.9431 74.6131 49.092 74.4291 49.092C74.2429 49.092 74.0936 48.9431 74.0936 48.7574C74.0936 48.5738 74.2429 48.4228 74.4291 48.4228C74.6131 48.4228 74.7645 48.5738 74.7645 48.7574Z" fill="white"/>
</g>
<path d="M188.795 243.967L124.69 206.83C120.755 204.538 117.565 198.976 117.565 194.403L117.582 25.5054C117.969 19.0116 119.981 18.6928 124.71 21.3819L188.811 58.5182C192.746 60.815 195.935 66.377 195.935 70.946L195.919 239.843C195.764 246.639 193.715 247.011 188.795 243.967Z" fill="#3974D4"/>
<path d="M117.284 16.3716C118.624 15.5338 120.502 15.6237 122.584 16.8375L190.754 56.5566C194.823 58.9269 198.126 64.681 198.126 69.4053V243.415C198.126 245.716 197.34 247.342 196.065 248.139V248.152L200.941 245.328L200.937 245.319C202.216 244.523 203.002 242.9 203.002 240.591V66.5814C203.002 61.8571 199.703 56.0989 195.634 53.7326L127.459 14.0135C125.374 12.7997 123.496 12.7139 122.152 13.5517L122.148 13.5435L117.276 16.3675L117.284 16.3716Z" fill="#7D90AA"/>
<path d="M198.208 243.341V69.3317C198.208 64.6074 194.909 58.8492 190.839 56.483L122.665 16.7639C118.596 14.3895 115.297 16.3021 115.297 21.0264V195.036C115.297 199.76 118.596 205.514 122.665 207.889L190.835 247.604C194.909 249.978 198.208 248.066 198.208 243.341ZM140.893 30.618C140.893 30.618 141.997 32.4897 142.192 34.8069C142.661 38.7261 145.133 40.3689 145.133 40.3689L166.249 52.4167C166.249 52.4167 169.019 53.8797 171.381 51.914C173.471 50.173 174.501 50.2262 174.501 50.2262L188.921 58.4937C192.856 60.7863 196.049 66.3484 196.049 70.9215L196.033 239.819C195.874 246.615 193.825 246.991 188.905 243.942L124.8 206.806C120.865 204.513 117.675 198.951 117.675 194.378L117.692 25.4809C118.079 18.9871 120.091 18.6683 124.82 21.3574" fill="black"/>
<path d="M169.328 229.786C169.381 229.581 169.206 229.128 168.131 228.494L140.938 212.744C140.201 212.315 139.63 212.123 139.777 212.728C139.924 213.333 140.38 213.565 141.117 213.995L168.31 229.749C169.019 230.096 169.259 229.912 169.328 229.786Z" fill="#221F1F"/>
<path d="M160.017 164.725C150.111 164.725 138.302 156.935 130.465 144.176C125.529 136.138 122.873 127.343 122.991 119.411C123.109 111.372 126.054 105.16 131.284 101.928C141.981 95.3153 159.019 103.505 169.271 120.187C179.516 136.869 179.145 155.82 168.449 162.432C165.931 163.989 163.064 164.725 160.017 164.725ZM139.765 100.914C136.938 100.914 134.286 101.597 131.956 103.035C127.117 106.027 124.388 111.85 124.278 119.435C124.164 127.127 126.755 135.672 131.561 143.502C141.435 159.575 157.675 167.573 167.768 161.333C177.858 155.096 178.037 136.947 168.168 120.87C160.567 108.503 149.198 100.914 139.765 100.914Z" fill="#FFB806"/>
<path d="M157.463 156.608C149.789 156.608 140.714 150.678 134.726 140.932C130.97 134.814 128.946 128.107 129.036 122.047C129.125 115.769 131.459 110.902 135.598 108.344C143.944 103.182 157.137 109.402 165.003 122.206C172.868 135.014 172.473 149.632 164.127 154.79C162.139 156.024 159.87 156.608 157.463 156.608ZM142.384 109.075C140.412 109.075 138.571 109.549 136.954 110.547C133.59 112.627 131.696 116.722 131.618 122.084C131.537 127.658 133.423 133.87 136.926 139.571C144.046 151.161 155.646 157.001 162.783 152.591C169.919 148.181 169.931 135.161 162.815 123.567C157.3 114.601 149.113 109.075 142.384 109.075Z" fill="#FFB806"/>
<path d="M98.5108 77.6769C98.5108 77.6769 102.494 92.5609 92.3194 95.1805C92.0465 96.713 92.7267 105.14 92.7267 105.14L79.2239 104.682L82.01 94.592L87.3541 76.9536L98.5108 77.6769Z" fill="#FADDD2"/>
<path d="M82.2706 93.7215C82.2706 93.7215 76.9631 85.217 76.0914 83.1082C75.5497 80.8809 73.1994 71.5059 83.3215 70.3535C85.8591 69.2337 94.5596 63.6308 100.315 72.356C100.885 73.9702 102.136 78.4289 97.3702 81.3836C95.7327 82.4666 95.3172 83.3289 95.3172 83.3289L93.6268 83.1777C93.6268 83.1777 92.6818 80.6766 90.5271 83.0755C89.6636 83.9583 88.8 84.7306 90.2297 86.7577C90.8977 88.0777 89.8876 95.3644 82.2706 93.7215Z" fill="#421B0D"/>
<path d="M143.735 113.008C140.949 113.122 138.044 118.59 136.794 122.489C136.757 122.616 136.835 122.742 136.847 122.869C134.757 124.524 125.409 129.494 121.759 133.969C118.835 136.421 115.89 130.344 114.122 128.386C111.572 126.461 106 138.599 106 138.599L114.758 144.145C114.758 144.145 120.061 147.083 124.631 143.336C130.346 140.454 140.472 127.299 140.472 127.299L140.342 127.107C140.879 127.275 143.25 126.257 143.8 126.036C145.454 125.35 147.397 121.819 146.219 119.281C143.775 113.993 146.521 112.893 143.735 113.008Z" fill="#FADDD2"/>
<path d="M104.388 135.733C104.388 135.733 103.093 133.51 102.857 131.745C102.665 135.308 104.604 147.074 104.841 149.089C104.918 145.186 105.105 140.355 104.388 135.733Z" fill="#C66B37"/>
<path d="M93.7084 94.7064C93.7084 94.7064 91.5943 95.6709 90.0465 94.8535C91.2848 96.2063 92.2583 96.9255 92.2583 96.9255L92.1117 95.8507C92.1117 95.8507 93.0689 95.4379 93.7084 94.7064Z" fill="#7375A4"/>
<path d="M96.743 249.222C94.6778 249.149 93.3051 248.589 92.4294 248.013C92.5801 250.236 92.1972 251.977 91.8062 253.567C91.3744 255.312 91.3744 258.982 91.8266 260.261C91.8266 260.261 92.4742 262.108 95.9935 262.141C99.5128 262.169 102.942 260.158 105.407 258.977C107.867 257.8 112.747 257.882 112.747 257.882C112.747 257.882 113.517 256.554 113.105 254.298C112.69 252.05 110.735 250.628 110.735 250.628C110.01 250.71 109.317 250.783 108.637 250.816L109.468 252.014C109.623 252.23 109.566 252.541 109.346 252.692C109.126 252.847 108.82 252.794 108.665 252.569L107.615 251.049C107.57 250.992 107.545 250.931 107.533 250.861C107.232 250.869 106.934 250.869 106.637 250.857L107.305 251.813C107.456 252.034 107.399 252.336 107.183 252.492C106.963 252.647 106.657 252.59 106.511 252.369L105.456 250.849C105.435 250.824 105.419 250.792 105.407 250.763C105.101 250.726 104.8 250.673 104.498 250.616L105.142 251.548C105.301 251.764 105.244 252.075 105.024 252.222C104.804 252.381 104.498 252.324 104.344 252.104L103.289 250.587C103.215 250.485 103.195 250.363 103.207 250.248C102.046 249.733 101.692 248.773 101.631 247.935C100.767 248.577 99.2317 249.308 96.743 249.222Z" fill="#F4854A"/>
<path d="M113.105 254.302C113.517 256.558 112.747 257.886 112.747 257.886C112.747 257.886 107.863 257.8 105.407 258.981C102.942 260.163 99.5087 262.173 95.9935 262.141C92.4742 262.108 91.8265 260.261 91.8265 260.261C91.7614 261.201 91.6432 262.676 93.5129 263.685C95.3866 264.682 100.987 263.117 102.796 261.859C104.617 260.592 106.645 260.33 108.617 260.179C110.584 260.024 117.003 259.975 117.859 253.755C117.883 252.594 117.659 249.725 113.7 250.252C112.661 250.387 111.68 250.522 110.743 250.632C110.735 250.632 112.69 252.054 113.105 254.302Z" fill="#DFC9B9"/>
<path d="M79.8674 241.641C79.8959 242.324 78.7106 243.954 77.7004 244.723C76.6903 245.483 75.3216 247.159 74.4622 248.85C73.5987 250.542 71.7453 252.598 69.1466 252.202C66.5478 251.805 66.0957 249.582 66.0957 249.582C66.0957 249.582 65.554 251.45 66.5112 252.684C67.4684 253.914 70.5722 254.94 73.3828 252.806C76.1892 250.677 75.6801 248.229 77.3094 246.55C78.9387 244.878 81.0161 243.059 80.8287 239.708C80.6698 236.827 78.4499 234.24 76.2381 234.825C76.0385 235.699 75.8797 236.41 75.7616 236.929C78.7961 238.106 79.5456 240.518 79.8674 241.641Z" fill="#DFC9B9"/>
<path d="M69.1425 252.197C71.7413 252.594 73.5946 250.538 74.4581 248.846C75.3217 247.154 76.6862 245.475 77.6964 244.719C78.7065 243.955 79.8919 242.32 79.8633 241.645C79.5416 240.518 78.7921 238.106 75.7534 236.925C75.6109 237.542 75.5335 237.886 75.5335 237.886C75.5335 237.886 74.1893 240.195 69.9531 239.435C68.6334 239.198 67.6639 238.813 66.9674 238.401C66.9755 239.075 66.9593 240.007 66.8819 241C66.8615 241.253 66.8371 241.519 66.8126 241.776C66.7271 242.561 66.6049 243.346 66.4297 244.057C66.4094 244.134 66.389 244.216 66.3727 244.294C66.3523 244.367 66.332 244.441 66.3116 244.523C65.7332 246.913 66.0835 249.582 66.0835 249.582C66.0835 249.582 66.5438 251.801 69.1425 252.197Z" fill="#F4854A"/>
<path d="M72.5682 155.632C72.5682 155.632 70.5438 160.004 70.5723 165.473C70.6212 176.069 72.7311 191.615 72.7515 193.275C72.78 195.792 72.6211 198.972 71.6761 202.098C70.7311 205.237 65.1711 236.394 65.1711 236.394C65.1711 236.394 65.4278 237.477 66.9715 238.401C67.6721 238.817 68.6375 239.202 69.9572 239.435C74.1934 240.199 75.5376 237.886 75.5376 237.886C75.5376 237.886 75.615 237.542 75.7575 236.925C75.8757 236.406 76.0345 235.691 76.2341 234.817C78.173 226.279 83.566 202.486 84.7391 196.928C84.7228 197.014 84.6984 197.108 84.6861 197.206C84.458 190.459 83.957 175.808 83.6434 172.596C80.4011 171.721 77.7901 170.965 75.5457 168.754C77.8838 169.719 82.2951 171.165 88.6494 171.594C88.6494 171.594 90.9875 190.005 91.4478 195.96C91.8999 201.914 92.2705 207.37 91.9243 211.199C91.5781 215.028 91.0852 246.721 91.0852 246.721C91.0852 246.721 91.4478 247.375 92.4253 248.013C93.3011 248.589 94.6778 249.153 96.7389 249.222C99.2277 249.312 100.763 248.577 101.623 247.935C102.262 247.449 102.527 247.015 102.527 247.015C102.527 247.015 104.226 210.329 104.588 201.677C104.951 193.025 104.82 151.357 104.82 151.357C103.826 155.137 99.7776 164.733 72.5682 155.632Z" fill="#7689C4"/>
<path d="M83.6434 172.6C83.9611 175.812 84.458 190.463 84.6821 197.21C84.7065 197.108 84.7228 197.018 84.7432 196.932C84.7635 196.855 84.7798 196.773 84.7961 196.695C84.8002 196.683 84.8002 196.671 84.8083 196.663C84.8124 196.622 84.8165 196.585 84.8287 196.552C84.8287 196.544 84.8328 196.54 84.8328 196.532C84.8735 196.356 84.902 196.201 84.9224 196.082C85.6922 192.167 88.6535 171.595 88.6535 171.595C82.2951 171.165 77.8879 169.719 75.5498 168.754C77.7942 170.969 80.4011 171.725 83.6434 172.6Z" fill="#626EAF"/>
<path d="M71.7494 96.1613C71.7494 96.1613 57.9614 104.404 63.1793 143.87C65.3462 147.393 72.9795 152.673 72.9795 152.673L71.7494 96.1613Z" fill="#F79D5B"/>
<path d="M72.5682 155.632C74.6659 157.491 89.7899 168.215 104.27 157.552C104.816 154.402 105.358 138.823 104.384 135.733C105.574 137.969 108.466 140.654 108.466 140.654C108.466 140.654 112.82 135.705 116.506 129.039C110.71 122.067 104.417 105.528 92.2868 102.157C88.4824 103.73 83.1546 101.601 80.9713 98.3354C80.3562 97.4118 73.8675 95.7036 71.7494 96.1572C59.7496 104.331 67.5703 152.894 72.5682 155.632Z" fill="#FBC295"/>
<g clip-path="url(#clip2)">
<path d="M266.874 258.955C266.333 257.347 263.762 255.974 263.762 255.974L184.237 245.993L176.954 251.799L178.253 256.154L184.869 263.365L228.648 285.768L229.547 281.464L266.874 258.955Z" fill="#A6C0E4"/>
<path d="M264.783 264.898V271.127L229.551 291.351V286.23L264.783 264.898Z" fill="white"/>
<path d="M229.551 291.351L267 269.852V274.206L229.551 296.434V291.351Z" fill="#709BD1"/>
<path d="M266.976 263.572C266.976 263.572 267.035 261.6 266.969 259.695C266.996 259.444 266.953 259.198 266.874 258.955L229.551 281.468L228.652 285.772L229.551 286.23L266.976 263.572Z" fill="#709BD1"/>
<path d="M176.954 251.799V267.586L229.551 296.434V281.464L176.954 251.799Z" fill="#90ABD0"/>
<path d="M183.099 263.775V262.007C183.099 262.007 182.781 259.785 186.239 262.007C189.696 264.229 217.55 280.087 217.55 280.087C217.55 280.087 219.179 280.435 219.269 282.607C219.359 284.778 219.269 284.371 219.269 284.371C219.269 284.371 219.089 286.277 216.997 284.688C214.905 283.42 184.696 265.638 184.696 265.638C184.696 265.638 183.099 265.317 183.099 263.775Z" fill="white"/>
<path d="M266.874 238.501V254.632L228.652 277.224L176 247.558V242.112L179.002 240.207V238.501L176 236.263V232.628L266.874 238.501Z" fill="#E4AAA8"/>
<path d="M176 232.628L228.652 261.89L266.874 238.849L213.806 209L176 232.628Z" fill="#EDB4B1"/>
<path d="M263.213 245.559V252.387L228.652 272.528L178.115 242.863V237.84L228.652 266.405L263.213 245.559Z" fill="white"/>
<path d="M242.795 236.944L248.678 239.937C248.678 239.937 252.158 241.435 248.678 243.611C245.334 245.583 235.712 251.365 235.712 251.365C235.712 251.365 233.255 253.611 230.799 251.909C228.342 250.618 224.045 248.032 224.045 248.032C224.045 248.032 221.247 246.561 224.657 244.745C227.934 242.93 237.898 236.944 237.898 236.944C237.898 236.944 239.93 235.488 242.795 236.944Z" fill="white"/>
<path d="M229.276 246.741C228.997 246.741 228.727 246.6 228.573 246.345C228.342 245.958 228.464 245.457 228.852 245.223L241.225 237.8C241.614 237.566 242.116 237.691 242.352 238.078C242.583 238.466 242.458 238.966 242.069 239.197L229.696 246.619C229.566 246.702 229.421 246.741 229.276 246.741Z" fill="#ECECEC"/>
<path d="M232.918 249.006C232.639 249.006 232.368 248.865 232.215 248.615C231.98 248.227 232.105 247.727 232.49 247.492L244.455 240.234C244.843 239.999 245.346 240.121 245.581 240.508C245.817 240.891 245.695 241.396 245.307 241.627L233.345 248.885C233.208 248.967 233.063 249.006 232.918 249.006Z" fill="#ECECEC"/>
</g>
<defs>
<clipPath id="clip0">
<rect width="50" height="154" fill="white" transform="translate(229 43)"/>
</clipPath>
<clipPath id="clip1">
<rect width="92" height="70" fill="white"/>
</clipPath>
<clipPath id="clip2">
<rect width="91" height="87" fill="white" transform="translate(176 209)"/>
</clipPath>
</defs>
</svg>
