<svg width="49" height="48" viewBox="0 0 49 48" fill="none" xmlns="http://www.w3.org/2000/svg">
<path fill-rule="evenodd" clip-rule="evenodd" d="M42.9385 27.0922C43.0493 27.6464 43.3195 28.1503 43.719 28.5502L48.7204 33.5379C48.8992 33.7163 48.9995 33.9583 48.9999 34.2106C48.9999 34.463 48.8999 34.7053 48.7212 34.8837L36.6155 46.9898C36.4296 47.1752 36.1866 47.2681 35.9431 47.2681C35.7001 47.2681 35.457 47.1756 35.2712 46.9905L30.3523 42.0846C29.9141 41.6468 29.3228 41.3625 28.6408 41.2621C26.7992 40.9923 24.987 40.5184 23.2472 39.8572C21.0466 40.7091 18.4748 41.4654 14.7741 41.4654C14.5203 41.4654 14.2817 41.5646 14.1018 41.7442L9.99683 45.8484C9.62517 46.2197 9.02346 46.2197 8.6518 45.8484L0.58158 37.7782C0.210292 37.4065 0.20992 36.8044 0.58158 36.4331L4.68544 32.3282C4.86533 32.1483 4.96419 31.9097 4.96419 31.6558C4.96419 29.7265 5.42914 27.8296 6.3122 26.1233L1.40332 21.2943C-0.085921 19.8055 -0.085921 17.3915 1.39737 15.9082C1.87793 15.4273 2.46478 15.0917 3.10478 14.9219L2.74613 14.5673C1.26023 13.0799 1.26023 10.6664 2.74204 9.18306C3.23114 8.69395 3.82357 8.36726 4.45056 8.20113L4.08744 7.83802C2.60452 6.35361 2.60452 3.94006 4.08744 2.45751C5.57483 0.970124 7.98058 0.970124 9.46796 2.45751L9.82773 2.81727C9.99795 2.17839 10.3328 1.59265 10.8126 1.11247C12.2959 -0.370823 14.7095 -0.370823 16.1931 1.11247L20.882 5.77531C21.2544 6.14586 21.2563 6.74794 20.8857 7.12072C20.5152 7.49312 19.9131 7.49461 19.5407 7.12443L14.85 2.45974C14.0977 1.7075 12.8954 1.71976 12.1577 2.45751C11.4143 3.20045 11.4147 4.40463 12.1577 5.14721L20.0346 12.9368C20.4081 13.3062 20.4115 13.9083 20.042 14.2819C19.6726 14.6554 19.0705 14.6587 18.697 14.2893C18.6897 14.282 18.6915 14.2838 18.6939 14.2863C18.7207 14.3128 18.8263 14.4178 8.12255 3.80254C7.37886 3.05848 6.17617 3.05848 5.43211 3.80254C4.69065 4.544 4.69102 5.75115 5.43248 6.49336C15.1687 16.1488 15.459 16.4368 15.4413 16.4193C15.4405 16.4185 15.4392 16.4172 15.4381 16.4161C15.4353 16.4134 15.4334 16.4115 15.4413 16.4193C16.486 15.9168 17.8009 16.0829 18.6933 16.9753C18.9286 17.2105 19.114 17.4781 19.2493 17.7639L20.038 16.9753C21.1533 15.8599 22.9588 15.8599 24.0738 16.9753C24.3366 17.2377 24.5365 17.5398 24.6752 17.8621C25.7645 17.2395 27.1794 17.3919 28.1085 18.3211C29.0373 19.2498 29.1901 20.6651 28.5675 21.7544C28.8898 21.8931 29.1916 22.0927 29.4543 22.3554C30.5693 23.4708 30.5697 25.2763 29.454 26.3913L23.0124 32.8113H25.2579C27.1158 32.8113 28.5237 34.502 28.1665 36.3532C27.9788 37.3259 27.3273 38.1376 26.4242 38.5241C26.2569 38.5958 26.0904 38.6676 25.9243 38.7397C26.907 39.0162 27.9067 39.2321 28.9169 39.38C30.007 39.5406 30.9677 40.0104 31.6962 40.7384L35.9416 44.9728L46.7027 34.2121L42.3751 29.896C41.7079 29.2289 41.2579 28.3886 41.0735 27.465C40.2945 23.5715 39.7322 21.9083 38.0623 16.9719L38.0592 16.9627C37.3075 14.7403 36.3725 11.9759 35.0972 8.07068C34.7033 7.09322 33.705 6.50005 32.8152 6.71784C31.8564 6.95236 31.2375 7.86106 31.3762 8.8311C31.3773 8.83853 32.4161 17.5346 32.4161 17.5346C32.464 17.9368 32.2522 18.3251 31.8883 18.5024C31.5241 18.6797 31.0878 18.6072 30.8008 18.3222L24.9353 12.489C24.5629 12.1184 24.5611 11.5163 24.9316 11.1439C25.3021 10.7712 25.9046 10.7697 26.277 11.1402L30.2028 15.0445L29.4915 9.08903C29.2202 7.15045 30.453 5.33787 32.3629 4.87032C34.1971 4.42098 36.1386 5.50957 36.8779 7.40132C36.8793 7.40505 36.9912 7.74206 37.1726 8.28819C37.8044 10.1912 39.2793 14.6335 39.8641 16.3624C41.5634 21.3861 42.1357 23.0783 42.9385 27.0922ZM6.76414 10.5151C6.02305 9.787 4.82259 9.79258 4.08707 10.5277C3.34636 11.2692 3.34636 12.4767 4.08744 13.2185L11.2917 20.3418L13.9821 17.6513L6.76414 10.5151ZM5.59081 17.38C4.48624 16.6679 3.67973 16.3148 2.74278 17.2525C2.00058 17.9947 2.00058 19.2019 2.74241 19.9437L7.34504 24.4709C7.69366 24.0022 8.07572 23.5577 8.48975 23.1441L9.94666 21.6868L5.59081 17.38ZM9.32376 43.8306L12.7564 40.3991C13.2953 39.8602 14.0119 39.5633 14.7741 39.5633C18.3499 39.5633 20.788 38.7898 22.8901 37.954C23.5852 37.6779 24.2584 37.387 24.9699 37.0797L25.0048 37.0646C25.092 37.0269 25.1765 36.9922 25.2578 36.9589C25.7907 36.7402 26.1861 36.578 26.2989 35.9927C26.4338 35.2944 25.902 34.7135 25.2579 34.7135H20.7107C20.3256 34.7135 19.9789 34.4816 19.8317 34.1259C19.6849 33.7698 19.7666 33.3606 20.0394 33.0889L28.1104 25.0451C28.4783 24.6772 28.4832 24.0747 28.1093 23.7008C27.7384 23.3299 27.1348 23.3307 26.7639 23.7008C26.7635 23.7012 26.7631 23.7012 26.7628 23.7016L20.0383 30.426C19.6667 30.7973 19.0646 30.7973 18.6933 30.426C18.322 30.0547 18.322 29.4523 18.6933 29.081L26.7635 21.0107C27.1341 20.6398 27.1341 20.0366 26.7635 19.6661C26.393 19.2955 25.7898 19.2952 25.4188 19.6661L17.3486 27.7363C16.977 28.1076 16.3753 28.1076 16.0036 27.7363C15.6319 27.3646 15.6319 26.7626 16.0036 26.3913L22.7288 19.6657C23.0997 19.2948 23.0997 18.6912 22.7288 18.3203C22.3564 17.9479 21.7543 17.9494 21.3834 18.3203C19.8038 19.8995 15.2595 24.4438 14.6578 25.0459C14.2862 25.4171 13.6841 25.4168 13.3128 25.0455C12.9415 24.6742 12.9415 24.0717 13.3128 23.7005L17.3412 19.6731C17.3464 19.6672 17.352 19.6616 17.3572 19.6561C17.7184 19.2859 17.7147 18.6864 17.3483 18.3203C16.9759 17.9479 16.3749 17.949 16.0036 18.3203L9.83479 24.4891C9.24905 25.0748 8.73616 25.7319 8.31061 26.4418C7.36548 28.0162 6.86634 29.8191 6.86634 31.6555C6.86634 32.4177 6.56939 33.1339 6.03048 33.6732L2.59858 37.1055L9.32376 43.8306ZM22.24 9.80077C21.8679 9.42986 21.8679 8.82777 22.24 8.45574C22.6109 8.08482 23.2141 8.08482 23.585 8.45574C23.9567 8.82777 23.9567 9.42986 23.585 9.80077C23.2141 10.1728 22.6109 10.1728 22.24 9.80077Z" fill="#A6A6A6"/>
</svg>
