<svg width="24" height="24" viewBox="0 0 24 24" fill="none" xmlns="http://www.w3.org/2000/svg">
<path d="M20.4853 3.51469C18.2188 1.24819 15.2053 0 12 0C8.79469 0 5.78119 1.24819 3.51469 3.51469C1.24823 5.78119 0 8.79469 0 12C0 15.2053 1.24823 18.2188 3.51469 20.4853C5.78119 22.7518 8.79469 24 12 24C15.2053 24 18.2188 22.7518 20.4853 20.4853C22.7518 18.2188 24 15.2053 24 12C24 8.79469 22.7518 5.78119 20.4853 3.51469ZM12 22.5938C6.15858 22.5938 1.40625 17.8414 1.40625 12C1.40625 6.15858 6.15858 1.40625 12 1.40625C17.8414 1.40625 22.5938 6.15858 22.5938 12C22.5938 17.8414 17.8414 22.5938 12 22.5938Z" fill="#9A9A9A"/>
<path d="M12.7534 11.2969H11.2471C10.389 11.2969 9.69087 10.5988 9.69087 9.74067C9.69087 8.88253 10.389 8.18442 11.2471 8.18442H14.2596C14.648 8.18442 14.9628 7.86961 14.9628 7.4813C14.9628 7.09299 14.648 6.77817 14.2596 6.77817H12.7034V5.22192C12.7034 4.83361 12.3886 4.5188 12.0003 4.5188C11.612 4.5188 11.2971 4.83361 11.2971 5.22192V6.77817H11.2472C9.61362 6.77817 8.28467 8.10717 8.28467 9.74067C8.28467 11.3742 9.61367 12.7031 11.2472 12.7031H12.7535C13.6115 12.7031 14.3097 13.4013 14.3097 14.2594C14.3097 15.1175 13.6115 15.8156 12.7535 15.8156H9.74094C9.35262 15.8156 9.03781 16.1304 9.03781 16.5188C9.03781 16.9071 9.35262 17.2219 9.74094 17.2219H11.2971V18.7782C11.2971 19.1665 11.612 19.4813 12.0003 19.4813C12.3886 19.4813 12.7034 19.1665 12.7034 18.7782V17.2219H12.7534C14.3869 17.2219 15.7159 15.8929 15.7159 14.2594C15.7159 12.6259 14.3869 11.2969 12.7534 11.2969Z" fill="#9A9A9A"/>
</svg>
