<svg width="20" height="20" viewBox="0 0 20 20" fill="none" xmlns="http://www.w3.org/2000/svg">
<g clip-path="url(#clip0)">
<path d="M14.6036 12.0428C14.5471 11.8546 14.3149 11.7665 14.0764 11.7665C13.8441 11.7665 13.6119 11.8546 13.5555 12.0428L12.3441 15.9906C12.3378 16.0158 12.3315 16.0408 12.3315 16.0533C12.3315 16.2543 12.6265 16.3922 12.8462 16.3922C12.9843 16.3922 13.091 16.3484 13.1224 16.2291L13.3607 15.3943H14.7981L15.0368 16.2291C15.0681 16.3484 15.1747 16.3922 15.3128 16.3922C15.5325 16.3922 15.8275 16.248 15.8275 16.0533C15.8275 16.0345 15.8212 16.0156 15.815 15.9906L14.6036 12.0428ZM13.5303 14.754L14.0762 12.8273L14.6225 14.754H13.5303Z" fill="#9A9A9A"/>
<path d="M17.8452 8.15887H11.841V5.59448L13.7923 4.20074C13.9462 4.09073 14.0376 3.91327 14.0376 3.72406C14.0376 3.5347 13.9462 3.35724 13.7923 3.24722L11.8175 1.8367C11.6632 0.798798 10.7661 0 9.68613 0H2.155C0.966644 0 0 0.966644 0 2.155V9.68628C0 10.8745 0.966644 11.8411 2.155 11.8411H8.15903V14.4055L6.20773 15.7993C6.05377 15.9093 5.96237 16.0869 5.96237 16.2761C5.96237 16.4653 6.05377 16.6429 6.20773 16.7528L8.18253 18.1633C8.33679 19.2012 9.23386 20 10.3139 20H17.8452C19.0334 20 20 19.0332 20 17.845V10.3139C20 9.12552 19.0334 8.15887 17.8452 8.15887V8.15887ZM2.155 10.6693C1.61285 10.6693 1.17188 10.2283 1.17188 9.68613V2.15485C1.17188 1.61285 1.61285 1.17188 2.155 1.17188H9.68613C10.2281 1.17188 10.6691 1.61285 10.6691 2.15485C10.6691 2.34421 10.7605 2.52182 10.9145 2.63168L12.4435 3.72391L10.9145 4.81613C10.7605 4.92615 10.6691 5.10376 10.6691 5.29297V8.15887H10.3139C9.12567 8.15887 8.15903 9.12552 8.15903 10.3137V10.6693H2.155ZM18.8281 17.845C18.8281 18.3871 18.3871 18.8281 17.8452 18.8281H10.3139C9.77188 18.8281 9.3309 18.3871 9.3309 17.845C9.3309 17.6558 9.2395 17.4782 9.08554 17.3683L7.55646 16.2761L9.08554 15.1839C9.2395 15.0739 9.3309 14.8962 9.3309 14.707V10.3139C9.3309 9.77173 9.77188 9.33075 10.3139 9.33075H11.2535H11.255H11.2566H17.8452C18.3871 9.33075 18.8281 9.77173 18.8281 10.3139V17.845Z" fill="#9A9A9A"/>
<path d="M7.72101 5.40146C7.90335 5.40146 8.05136 5.25345 8.05136 5.07095C8.05136 4.88846 7.90335 4.74045 7.72101 4.74045H6.25113V3.93814C6.25113 3.75565 6.10312 3.60764 5.92062 3.60764C5.73828 3.60764 5.59027 3.75565 5.59027 3.93814V4.74045H4.12039C3.93805 4.74045 3.79004 4.88846 3.79004 5.07095C3.79004 5.25345 3.93805 5.40146 4.12039 5.40146H4.57587C4.64865 6.09924 4.94955 6.72989 5.40213 7.21832C5.02692 7.44293 4.58868 7.57263 4.12039 7.57263C3.93805 7.57263 3.79004 7.72049 3.79004 7.90298C3.79004 8.08548 3.93805 8.23349 4.12039 8.23349C4.78903 8.23349 5.4093 8.02444 5.92062 7.66891C6.4321 8.02444 7.05237 8.23349 7.72101 8.23349C7.90335 8.23349 8.05136 8.08548 8.05136 7.90298C8.05136 7.72049 7.90335 7.57263 7.72101 7.57263C7.25272 7.57263 6.81448 7.44324 6.43927 7.21832C6.89185 6.72989 7.19275 6.09924 7.26553 5.40146H7.72101ZM5.92062 6.80542C5.55914 6.43021 5.31363 5.94299 5.24176 5.40146H6.59964C6.52777 5.94299 6.28226 6.43021 5.92062 6.80542Z" fill="#9A9A9A"/>
</g>
<defs>
<clipPath id="clip0">
<rect width="20" height="20" fill="white"/>
</clipPath>
</defs>
</svg>
