<svg width="139" height="21" viewBox="0 0 139 21" fill= "#3974D4" xmlns="http://www.w3.org/2000/svg">
  <g id="Vector">
    <path d="M38.6821 0C38.9926 0 39.2341 0.239833 39.2341 0.54819V2.08997C39.2341 2.39833 39.0271 2.6039 38.6821 2.6039H27.4004V8.56547H33.231C33.6105 8.56547 33.783 8.73678 33.783 9.11366V10.5527C33.783 10.861 33.5415 11.1351 33.231 11.1351H27.4004V17.268H38.8201C39.1306 17.268 39.3721 17.5078 39.3721 17.8162V19.358C39.3721 19.6663 39.1306 19.9061 38.8201 19.9061H25.0544C24.7439 19.9061 24.5369 19.6663 24.5369 19.358V0.513928C24.5369 0.239833 24.7439 0 25.0544 0H38.6821Z" fill="b#3974D4"/>
    <path d="M52.3098 12.6769C52.3098 10.1757 50.9298 8.63396 48.4803 8.63396C46.0307 8.63396 44.4782 10.2785 44.4782 12.6769V19.4607C44.4782 19.7691 44.2367 19.9404 43.9607 19.9404H42.2356C41.9251 19.9404 41.7181 19.7348 41.7181 19.4265V7.02366C41.7181 6.7153 41.9251 6.47547 42.2356 6.47547H43.9607C44.2022 6.47547 44.4782 6.68104 44.4782 6.98939V8.46266C45.2372 7.12644 46.9277 6.09859 49.2393 6.09859C52.8619 6.09859 55.0699 8.53118 55.0699 11.9231V19.4265C55.0699 19.7348 54.8284 19.9061 54.5179 19.9061H52.8619C52.5513 19.9061 52.3098 19.7348 52.3098 19.4265V12.6769Z" fill="#3974D4"/>
    <path d="M68.2147 7.81171C68.5252 8.05154 68.4907 8.39416 68.2492 8.73678L67.5592 9.49054C67.2487 9.76464 66.9036 9.76464 66.5241 9.5248C65.5236 8.77104 64.3506 8.29138 63.0051 8.29138C61.3835 8.29138 60.4175 9.0794 60.4175 10.0387C60.4175 10.861 60.9695 11.4092 62.4186 11.649L64.7991 12.0944C67.4212 12.6426 68.9047 13.7048 68.9047 16.0346C68.9047 18.2273 66.8001 20.3173 63.1431 20.3173C60.728 20.3173 59.003 19.495 57.8645 18.5699C57.14 17.9875 57.1745 17.4736 57.623 17.1309L58.382 16.5142C58.796 16.1716 59.1065 16.3772 59.417 16.5827C60.4175 17.5078 61.6941 18.1588 63.2811 18.1588C65.1441 18.1588 66.0756 17.2337 66.0756 16.2744C66.0756 15.2123 65.2476 14.7326 63.6261 14.4243L61.349 14.0131C59.072 13.5677 57.6575 12.3 57.6575 10.2443C57.6575 7.84597 59.969 6.13288 63.1776 6.13288C65.4891 6.09862 67.2141 6.9209 68.2147 7.81171Z" fill="#3974D4"/>
    <path d="M70.7678 2.12424C70.7678 1.06213 71.6303 0.205579 72.6998 0.205579C73.7693 0.205579 74.6318 1.09639 74.6318 2.12424C74.6318 3.1521 73.7693 4.04291 72.6998 4.04291C71.6303 4.04291 70.7678 3.1521 70.7678 2.12424ZM71.8718 19.9404C71.5613 19.9404 71.3198 19.7006 71.3198 19.3922V7.02369C71.3198 6.64681 71.4923 6.4755 71.8718 6.4755H73.5623C73.8728 6.4755 74.0798 6.71533 74.0798 7.02369V19.3922C74.0798 19.7006 73.8728 19.9404 73.5623 19.9404H71.8718Z" fill="#3974D4"/>
    <path d="M88.1556 12.7797C88.5351 10.724 87.8106 9.4563 85.7751 9.4563C83.843 9.4563 82.463 10.8953 82.0145 13.3279L80.945 19.358C80.876 19.7006 80.531 19.9404 80.1859 19.9404H77.3569C77.0464 19.9404 76.7704 19.7006 76.8739 19.358L79.1509 6.71535C79.2199 6.37273 79.4959 6.09864 79.8409 6.09864H82.601C82.9115 6.09864 83.1875 6.33847 83.1185 6.68109L82.946 7.5719C83.6705 6.68109 85.223 5.72176 87.1551 5.72176C90.5361 5.72176 93.0892 8.15435 92.3302 12.3686L91.0537 19.3922C90.9847 19.7349 90.6397 19.9747 90.3291 19.9747H87.5346C87.1896 19.9747 86.9481 19.7349 87.0171 19.3922L88.1556 12.7797Z" fill="#3974D4"/>
    <path d="M108.718 12.5056C108.718 16.8911 105.406 20.3173 100.921 20.3173C96.8842 20.3173 93.8826 17.3708 93.8826 13.4992C93.8826 9.11366 97.1947 5.68747 101.68 5.68747C105.751 5.65321 108.718 8.59973 108.718 12.5056ZM97.9537 13.3621C97.9537 15.4521 99.4027 16.7198 101.093 16.7198C103.198 16.7198 104.716 14.8354 104.716 12.6769C104.716 10.5527 103.301 9.31923 101.576 9.31923C99.4717 9.31923 97.9537 11.1351 97.9537 13.3621Z" fill="#3974D4"/>
    <path d="M116.791 19.2894C116.653 19.6321 116.308 19.9062 115.86 19.9062H112.617C112.203 19.9062 112.03 19.6321 111.927 19.2894L109.995 6.95516C109.891 6.37271 110.202 6.0301 110.754 6.0301H113.617C114.066 6.0301 114.204 6.30419 114.238 6.64681L115.17 14.9382L118.93 6.61255C119.068 6.2014 119.379 6.0301 119.827 6.0301H122.277C122.656 6.0301 122.863 6.23567 122.898 6.64681L123.76 14.9382L127.452 6.64681C127.59 6.33845 127.866 6.0301 128.314 6.0301H130.971C131.454 6.0301 131.661 6.37271 131.385 6.95516L125.382 19.2894C125.175 19.6321 124.933 19.9062 124.485 19.9062H121.311C120.897 19.9062 120.69 19.6321 120.655 19.2894L119.862 12.3L116.791 19.2894Z" fill="#3974D4"/>
    <path d="M131.247 17.6449C131.385 16.1716 132.696 14.9382 134.179 14.9382C135.663 14.9382 136.802 16.1716 136.664 17.6449C136.595 19.1181 135.18 20.3173 133.696 20.3173C132.213 20.3173 131.143 19.1181 131.247 17.6449ZM136.802 12.4713C136.733 12.8139 136.422 13.1223 136.077 13.1223H133.179C132.834 13.1223 132.592 12.8139 132.661 12.4713L134.731 0.616714C134.766 0.274095 135.111 0 135.456 0H138.458C138.803 0 139.044 0.274095 138.975 0.616714L136.802 12.4713Z" fill="#3974D4"/>
    <path d="M12.7923 8.0201C12.3044 8.50795 11.8166 8.87383 11.3287 9.23971C9.49932 10.4593 7.30401 8.26403 8.52363 6.43461C8.88951 5.94676 9.25539 5.45892 9.74324 4.97108C10.2311 4.48323 10.7189 4.11735 11.2068 3.75146C13.0362 2.53185 15.2315 4.72715 14.0119 6.55657C13.646 7.04441 13.2801 7.53226 12.7923 8.0201Z" fill="#3974D4"/>
    <path d="M4.62087 16.1915C4.13303 16.6793 3.64518 17.0452 3.15734 17.4111C1.32792 18.6307 -0.867381 16.4354 0.35223 14.606C0.718114 14.1182 1.084 13.6303 1.57184 13.1425C2.05969 12.6546 2.54753 12.2887 3.03538 11.9229C4.86479 10.7032 7.06009 12.8985 5.84048 14.728C5.4746 15.2158 5.10871 15.7646 4.62087 16.1915Z" fill="#3974D4"/>
    <path d="M9.74324 16.1915C9.25539 15.7037 8.88951 15.2158 8.52363 14.728C7.30401 12.8985 9.49932 10.7032 11.3287 11.9229C11.8166 12.2887 12.3044 12.6546 12.7923 13.1425C13.2801 13.6303 13.646 14.1182 14.0119 14.606C15.2315 16.4354 13.0362 18.6307 11.2068 17.4111C10.7189 17.0452 10.2311 16.6793 9.74324 16.1915Z" fill="#3974D4"/>
    <path d="M1.57184 8.0201C1.084 7.53226 0.718114 7.04441 0.35223 6.55657C-0.867381 4.72715 1.32792 2.53185 3.15734 3.75146C3.64518 4.11735 4.13303 4.48323 4.62087 4.97108C5.10871 5.45892 5.4746 5.94676 5.84048 6.43461C7.06009 8.26403 4.86479 10.4593 3.03538 9.23971C2.54753 8.87383 2.05969 8.50795 1.57184 8.0201Z" fill="#3974D4"/>
  </g>
</svg>
 
