<svg width="45" height="46" viewBox="0 0 45 46" fill="none" xmlns="http://www.w3.org/2000/svg">
<path d="M7.30132 22.6077L7.30141 22.6079C7.98288 24.4913 7.02094 26.5622 5.16846 27.2431L3.08789 28.0068L0.638693 21.2174L2.7208 20.448C2.72087 20.448 2.72094 20.448 2.72101 20.448C4.57047 19.7682 6.62461 20.7345 7.30132 22.6077ZM27.3884 45.1196H33.2025V45.4909H6.31171V45.1196H9.71334H9.942L10.0916 44.9467L15.9802 38.1363L16.102 37.9954V37.8092V36.5066C16.102 35.3609 16.8908 34.402 17.9472 34.1448L18.3289 34.0518V33.659V26.7069V26.288L17.9165 26.2146C16.462 25.9559 15.314 24.7631 15.1202 23.2649L15.0464 22.6945L14.4918 22.847L9.58955 24.1948L9.49325 23.8391L14.8293 22.3714L15.1144 22.293L15.1831 22.0055C15.512 20.6285 16.6489 19.5771 18.0459 19.3863L18.6578 19.3028L18.4488 18.7216L17.5526 16.2306L17.3672 15.7153L16.8708 15.9467L8.12038 20.026L7.96708 19.6918L16.827 15.5641L17.2418 15.3709L17.086 14.9407L16.5421 13.4382L27.7207 8.39516L28.1425 8.20485L27.9854 7.76959L27.3587 6.03393L37.3835 0.712016L44.3365 20.0056L33.2681 22.4358L32.5932 20.5634L32.4344 20.1229L31.9845 20.2524L22.2213 23.0634L21.9241 23.149L21.868 23.4531C21.6065 24.8694 20.4978 25.9771 19.0999 26.2236L18.6868 26.2965V26.716V33.6681V34.061L19.0685 34.1539C20.1249 34.4112 20.9137 35.37 20.9137 36.5157V37.8549V38.0441L21.0389 38.1859L27.0136 44.9506L27.1629 45.1196H27.3884ZM3.12792 27.0636L3.29859 27.5378L3.7714 27.3634L5.047 26.8929L4.87477 26.4235L5.0478 26.8926L5.04766 26.8926C6.71641 26.28 7.57339 24.4158 6.97017 22.7393C6.36596 21.06 4.51804 20.1851 2.84678 20.7983L2.84598 20.7986L1.56958 21.2694L1.10415 21.441L1.27215 21.9078L3.12792 27.0636ZM25.5733 45.1288H26.6818L25.9481 44.2978L20.7701 38.4336L20.6208 38.2645H20.3953H19.1868H18.6868V38.7645V44.6288V45.1288H19.1868H25.5733ZM37.382 1.77308L37.1865 1.23059L36.6772 1.50092L28.1859 6.00768L27.803 6.21092L27.9499 6.6188C30.952 14.9515 31.8396 17.4125 32.2647 18.5912C32.5408 19.3569 32.6218 19.5815 32.9604 20.5228L33.3451 21.5923L33.4938 22.0056L33.9228 21.9115L43.2967 19.8546L43.853 19.7326L43.6599 19.1968L37.382 1.77308ZM17.4149 13.4485L16.9951 13.6381L17.1497 14.072L17.376 14.7073L17.3767 14.7093L18.979 19.1475L19.0696 19.3986L19.3287 19.463C20.6253 19.7853 21.6344 20.8581 21.8718 22.2047L21.9684 22.7523L22.5027 22.5983L31.7951 19.9198L32.308 19.772L32.127 19.2699L28.4472 9.05882L28.2638 8.55012L27.771 8.77264L17.4149 13.4485ZM20.0558 37.8933H20.5558L16.9644 36.5157H16.4644V36.5159C16.4644 36.5162 16.4644 36.5165 16.4644 36.5168L16.4644 37.3933V37.8933H16.9644H20.0558ZM16.5887 38.2645H16.3602L16.2106 38.4374L11.1367 44.3016L10.421 45.1288H11.5148H17.8289H18.3289V44.6288V38.7645V38.2645H17.8289H16.5887ZM40.4473 18.732L40.1666 17.9541L40.5047 17.8294L40.7854 18.6073L40.4473 18.732ZM38.9264 14.5215L39.2646 14.3967L39.5452 15.1747L39.2071 15.2994L38.9264 14.5215ZM35.491 4.9878L35.2103 4.20986L35.5485 4.08513L35.8292 4.86307L35.491 4.9878ZM36.7312 8.425L36.4505 7.64707L36.7887 7.52234L37.0694 8.30027L36.7312 8.425ZM37.9669 11.8622L37.6862 11.0843L38.0244 10.9595L38.3051 11.7375L37.9669 11.8622ZM18.5078 19.7256C16.8104 19.7256 15.4415 21.115 15.4415 22.8172C15.4415 24.5193 16.8104 25.9088 18.5078 25.9088C20.2053 25.9088 21.5742 24.5193 21.5742 22.8172C21.5742 21.115 20.2053 19.7256 18.5078 19.7256ZM18.2429 22.8172C18.2429 22.6617 18.365 22.5447 18.5078 22.5447C18.6526 22.5447 18.7728 22.659 18.7728 22.8172C18.7728 22.9363 18.733 22.9894 18.7012 23.0178C18.6602 23.0543 18.5916 23.0832 18.5071 23.0833C18.4226 23.0835 18.3547 23.0548 18.3143 23.0189C18.2831 22.9911 18.2429 22.9381 18.2429 22.8172ZM1.55914 45.1288H2.82227V45.5H1.55914V45.1288Z" fill="white" stroke="white"/>
</svg>
