<svg width="48" height="46" viewBox="0 0 48 46" fill="none" xmlns="http://www.w3.org/2000/svg">
<path fill-rule="evenodd" clip-rule="evenodd" d="M41.5086 26.3654C41.6163 26.9047 41.8793 27.3951 42.2681 27.7843L47.1353 32.6381C47.3093 32.8117 47.407 33.0472 47.4073 33.2928C47.4073 33.5384 47.31 33.7742 47.1361 33.9478L35.3551 45.7291C35.1743 45.9096 34.9378 46 34.7009 46C34.4643 46 34.2278 45.9099 34.0469 45.7298L29.26 40.9555C28.8335 40.5295 28.2581 40.2528 27.5944 40.1551C25.8022 39.8925 24.0386 39.4314 22.3456 38.7879C20.204 39.6169 17.7011 40.353 14.0998 40.353C13.8528 40.353 13.6206 40.4495 13.4455 40.6242L9.45065 44.6183C9.08896 44.9797 8.50339 44.9797 8.1417 44.6183L0.287996 36.7646C-0.0733313 36.403 -0.0736929 35.817 0.287996 35.4557L4.28176 31.4608C4.45682 31.2858 4.55303 31.0536 4.55303 30.8065C4.55303 28.929 5.0055 27.083 5.86487 25.4225L1.08769 20.723C-0.361597 19.2741 -0.361597 16.9249 1.0819 15.4814C1.54957 15.0134 2.12067 14.6868 2.7435 14.5215L2.39447 14.1765C0.948439 12.729 0.948439 10.3802 2.39049 8.93669C2.86647 8.46071 3.443 8.14278 4.05317 7.98111L3.6998 7.62774C2.25667 6.18316 2.25667 3.83435 3.6998 2.39157C5.14728 0.944097 7.48849 0.944097 8.93597 2.39157L9.28608 2.74169C9.45174 2.11995 9.77762 1.54993 10.2446 1.08262C11.6881 -0.360875 14.0369 -0.360875 15.4807 1.08262L20.0438 5.62037C20.4062 5.98097 20.408 6.56691 20.0474 6.92968C19.6868 7.29209 19.1009 7.29354 18.7385 6.9333L14.1736 2.39374C13.4415 1.66169 12.2715 1.67362 11.5535 2.39157C10.8301 3.11459 10.8305 4.28646 11.5535 5.00911L19.2191 12.5897C19.5826 12.9493 19.5859 13.5352 19.2264 13.8987C18.8669 14.2622 18.2809 14.2654 17.9174 13.9059C17.9103 13.8989 17.912 13.9006 17.9144 13.903C17.9405 13.9289 18.0419 14.0297 7.62666 3.70053C6.90292 2.97643 5.73249 2.97643 5.00839 3.70053C4.28682 4.42209 4.28719 5.59686 5.00875 6.31915C14.4833 15.7151 14.7662 15.9958 14.749 15.9788C14.7483 15.978 14.747 15.9768 14.7459 15.9756C14.7432 15.973 14.7414 15.9712 14.749 15.9788C15.7657 15.4898 17.0454 15.6514 17.9138 16.5199C18.1428 16.7488 18.3232 17.0092 18.4549 17.2874L19.2224 16.5199C20.3078 15.4344 22.0649 15.4344 23.15 16.5199C23.4057 16.7752 23.6003 17.0693 23.7352 17.3828C24.7953 16.777 26.1722 16.9253 27.0765 17.8295C27.9803 18.7334 28.129 20.1107 27.5231 21.1708C27.8367 21.3057 28.1304 21.4999 28.3861 21.7557C29.4712 22.8411 29.4716 24.5982 28.3858 25.6832L22.117 31.931H24.3023C26.1104 31.931 27.4805 33.5764 27.1329 35.3779C26.9502 36.3245 26.3162 37.1144 25.4373 37.4906C25.2745 37.5604 25.1125 37.6302 24.9508 37.7003C25.9071 37.9694 26.8801 38.1796 27.8631 38.3235C28.924 38.4798 29.8589 38.9369 30.5678 39.6455L34.6994 43.7662L45.1717 33.2942L40.9602 29.094C40.311 28.4447 39.873 27.6269 39.6936 26.7281C38.9355 22.9391 38.3883 21.3205 36.7632 16.5166L36.7599 16.507C36.0284 14.3443 35.1186 11.6542 33.8776 7.85416C33.4943 6.90292 32.5228 6.32566 31.6569 6.53761C30.7237 6.76584 30.1215 7.65016 30.2564 8.59417C30.2575 8.60141 31.2684 17.0642 31.2684 17.0642C31.3151 17.4555 31.1089 17.8335 30.7548 18.006C30.4004 18.1786 29.9758 18.108 29.6965 17.8306L23.9884 12.1539C23.6259 11.7933 23.6241 11.2074 23.9847 10.845C24.3453 10.4822 24.9316 10.4807 25.2941 10.8413L29.1146 14.6409L28.4223 8.84518C28.1583 6.95862 29.358 5.19466 31.2167 4.73966C33.0016 4.30238 34.8911 5.36176 35.6105 7.20276C35.6119 7.20638 35.7206 7.53354 35.8967 8.06386C36.5112 9.91473 37.9474 14.2403 38.5167 15.9234C40.1703 20.8124 40.7273 22.4591 41.5086 26.3654ZM6.30469 10.233C5.58348 9.52443 4.41522 9.52986 3.69944 10.2453C2.9786 10.9668 2.9786 12.142 3.6998 12.8639L10.7108 19.796L13.329 17.1778L6.30469 10.233ZM5.16283 16.9137C4.0879 16.2207 3.30303 15.8771 2.39121 16.7897C1.66892 17.512 1.66892 18.6867 2.39085 19.4087L6.87 23.8144C7.20927 23.3583 7.58108 22.9257 7.984 22.5232L9.40182 21.105L5.16283 16.9137ZM8.79563 42.6547L12.1362 39.3153C12.6606 38.7908 13.358 38.5018 14.0998 38.5018C17.5796 38.5018 19.9523 37.7492 21.998 36.9357C22.6746 36.667 23.3299 36.3839 24.0224 36.0847L24.056 36.0702C24.1408 36.0335 24.2231 35.9998 24.3022 35.9673C24.8207 35.7545 25.2056 35.5966 25.3154 35.0271C25.4467 34.3475 24.9291 33.7822 24.3023 33.7822H19.877C19.5023 33.7822 19.1649 33.5565 19.0217 33.2103C18.8788 32.8638 18.9584 32.4656 19.2238 32.2012L27.0783 24.3732C27.4363 24.0151 27.441 23.4288 27.0772 23.065C26.7162 22.704 26.1288 22.7047 25.7679 23.065C25.7677 23.0651 25.7675 23.0652 25.7673 23.0653C25.7671 23.0654 25.767 23.0655 25.7668 23.0657L19.2228 29.6097C18.8611 29.971 18.2751 29.971 17.9138 29.6097C17.5525 29.2484 17.5525 28.6621 17.9138 28.3008L25.7675 20.4471C26.1281 20.0861 26.1281 19.4991 25.7675 19.1385C25.4069 18.7779 24.8199 18.7775 24.4589 19.1385L16.6052 26.9922C16.2435 27.3535 15.658 27.3535 15.2963 26.9922C14.9346 26.6305 14.9346 26.0446 15.2963 25.6832L21.841 19.1381C22.202 18.7771 22.202 18.1898 21.841 17.8288C21.4786 17.4664 20.8927 17.4678 20.5317 17.8288C18.9945 19.3656 14.5722 23.788 13.9866 24.3739C13.6249 24.7352 13.039 24.7349 12.6776 24.3736C12.3163 24.0122 12.3163 23.4259 12.6776 23.0646L16.598 19.1453C16.6013 19.1415 16.6048 19.1378 16.6083 19.1342C16.6101 19.1324 16.6118 19.1305 16.6135 19.1287C16.9651 18.7685 16.9615 18.1851 16.6049 17.8288C16.2424 17.4664 15.6576 17.4675 15.2963 17.8288L9.29296 23.8321C8.72293 24.4021 8.2238 25.0416 7.80967 25.7324C6.8899 27.2645 6.40415 29.0191 6.40415 30.8062C6.40415 31.548 6.11516 32.245 5.59071 32.7698L2.25088 36.11L8.79563 42.6547ZM21.3654 9.53784C21.0034 9.17688 21.0034 8.59094 21.3654 8.22889C21.7264 7.86793 22.3134 7.86793 22.6744 8.22889C23.0361 8.59094 23.0361 9.17688 22.6744 9.53784C22.3134 9.89989 21.7264 9.89989 21.3654 9.53784Z" fill="white"/>
</svg>
