<svg width="20" height="29" viewBox="0 0 20 29" fill="none" xmlns="http://www.w3.org/2000/svg">
<g clip-path="url(#clip0)">
<path d="M19.5683 4.07859L18.2732 4.07267H18.2675V3.17289C18.2675 2.92427 18.0744 2.71709 17.8302 2.71709H16.5237V1.81139C16.5237 1.56277 16.3306 1.35558 16.0863 1.35558H5.26555C5.20875 0.597877 4.60097 0 3.85686 0C3.11275 0 2.50497 0.597877 2.44817 1.3615H0.437376C0.193127 1.3615 0 1.56277 0 1.81139V24.9214C0 25.17 0.193127 25.3772 0.437376 25.3772H1.30645V26.7387C1.30645 26.9873 1.49957 27.1945 1.74382 27.1945H2.61289V28.556C2.61289 28.8047 2.80602 29.0118 3.05027 29.0118H19.574C19.8126 29.0118 20.0114 28.8106 20.0114 28.556V4.53439C20 4.27985 19.8069 4.07859 19.5683 4.07859ZM3.85686 0.905695C4.11815 0.905695 4.33968 1.10104 4.3908 1.3615H3.32292C3.37404 1.10104 3.59557 0.905695 3.85686 0.905695ZM0.869071 24.4715V2.2672H2.44249V5.54664C2.44249 6.35762 3.07867 7.02062 3.85686 7.02062C4.63505 7.02062 5.27123 6.35762 5.27123 5.54664V3.51031C5.27123 3.26169 5.0781 3.0545 4.83385 3.0545C4.59529 3.0545 4.39648 3.25577 4.39648 3.51031V5.54664C4.39648 5.86038 4.15223 6.11492 3.85118 6.11492C3.55013 6.11492 3.30588 5.86038 3.30588 5.54664V2.2672H15.649V24.4715H0.869071V24.4715ZM2.17552 26.2829V25.3772H16.092C16.3306 25.3772 16.5294 25.176 16.5294 24.9214V3.62278H17.3985V26.2829H2.17552ZM3.47629 28.0943V27.1886H17.8245C18.063 27.1886 18.2619 26.9873 18.2619 26.7328V4.97836H18.2675L19.1309 4.98428V28.1002H3.47629V28.0943Z" fill="#9A9A9A"/>
<path d="M11.3036 9.96857H5.22009C4.98152 9.96857 4.78271 10.1698 4.78271 10.4244C4.78271 10.673 4.97584 10.8802 5.22009 10.8802H11.3036C11.5422 10.8802 11.741 10.6789 11.741 10.4244C11.741 10.1698 11.5478 9.96857 11.3036 9.96857Z" fill="#9A9A9A"/>
<path d="M11.3036 11.78H5.22009C4.98152 11.78 4.78271 11.9812 4.78271 12.2358C4.78271 12.4844 4.97584 12.6916 5.22009 12.6916H11.3036C11.5422 12.6916 11.741 12.4903 11.741 12.2358C11.741 11.9871 11.5478 11.78 11.3036 11.78Z" fill="#9A9A9A"/>
<path d="M9.56558 13.5973H6.95837C6.7198 13.5973 6.521 13.7985 6.521 14.0531C6.521 14.3017 6.71412 14.5089 6.95837 14.5089H9.56558C9.80415 14.5089 10.003 14.3076 10.003 14.0531C10.003 13.7985 9.80415 13.5973 9.56558 13.5973Z" fill="#9A9A9A"/>
</g>
<defs>
<clipPath id="clip0">
<rect width="20" height="29" fill="white"/>
</clipPath>
</defs>
</svg>
