<svg width="18" height="34" viewBox="0 0 18 34" fill="none" xmlns="http://www.w3.org/2000/svg">
<path d="M13.1504 15.0035C11.8543 14.2873 10.4764 13.7416 9.11205 13.1754C8.32075 12.8479 7.56356 12.4659 6.89505 11.9339C5.5785 10.8834 5.8309 9.17797 7.37256 8.50264C7.80914 8.31164 8.26618 8.25025 8.73004 8.22296C10.5173 8.12746 12.2158 8.45489 13.8325 9.23254C14.6375 9.62137 14.9035 9.49858 15.1764 8.65954C15.4629 7.77274 15.7016 6.8723 15.9677 5.97868C16.145 5.37839 15.9267 4.98274 15.3606 4.73034C14.3237 4.2733 13.2595 3.94587 12.1408 3.76851C10.681 3.5434 10.681 3.53658 10.6742 2.06995C10.6674 0.00303183 10.6674 0.00303179 8.59361 0.00303179C8.29347 0.00303179 7.99332 -0.00378973 7.69317 0.00303179C6.72452 0.0303179 6.5608 0.200856 6.53351 1.17633C6.51987 1.61291 6.53351 2.04949 6.52669 2.49289C6.51987 3.78897 6.51305 3.76851 5.27153 4.21873C2.27007 5.31017 0.414613 7.35663 0.216789 10.631C0.0394294 13.5301 1.55381 15.4879 3.93452 16.9136C5.40114 17.7935 7.02466 18.312 8.57997 19.001C9.18708 19.267 9.76691 19.574 10.2717 19.9969C11.7656 21.2316 11.4928 23.2849 9.71916 24.0625C8.77097 24.4786 7.76821 24.581 6.73816 24.4514C5.14875 24.2535 3.62755 23.8374 2.19503 23.0939C1.35598 22.6573 1.11041 22.7733 0.823904 23.6805C0.578329 24.465 0.360041 25.2563 0.141752 26.0476C-0.151573 27.1117 -0.0424294 27.3641 0.973977 27.8621C2.27007 28.4897 3.65483 28.8103 5.06689 29.0354C6.17197 29.2128 6.20608 29.2605 6.21972 30.4065C6.22655 30.925 6.22655 31.4502 6.23337 31.9687C6.24019 32.6235 6.55398 33.0055 7.22931 33.0192C7.99332 33.0328 8.76415 33.0328 9.52816 33.0124C10.1557 32.9987 10.4764 32.6576 10.4764 32.0232C10.4764 31.3138 10.5105 30.5975 10.4832 29.8881C10.4491 29.165 10.7629 28.7967 11.4586 28.6057C13.0617 28.1691 14.426 27.3096 15.4765 26.0271C18.3961 22.4799 17.2842 17.2888 13.1504 15.0035Z" fill="#A6A6A6"/>
</svg>
