<svg width="22" height="22" viewBox="0 0 22 22" fill="none" xmlns="http://www.w3.org/2000/svg">
<g clip-path="url(#clip0)">
<path d="M21.7832 0.056474C21.6492 -0.0200104 21.4844 -0.0187214 21.3516 0.0598255L13.4774 4.71609C13.2732 4.83688 13.2055 5.10036 13.3263 5.30463C13.447 5.50886 13.7105 5.57654 13.9148 5.4558L19.5644 2.11502L9.04112 13.0339L3.80718 11.4327L10.6377 7.3936C10.842 7.27277 10.9097 7.00929 10.7889 6.80502C10.6681 6.60079 10.4046 6.53302 10.2003 6.65385L2.53131 11.1887C2.38479 11.2754 2.30319 11.4404 2.32334 11.6094C2.3435 11.7785 2.46153 11.9197 2.6243 11.9695L8.87492 13.8818L11.6325 18.9011C11.6354 18.9063 11.6384 18.9107 11.6414 18.9146C11.6874 18.9913 11.7564 19.054 11.8424 19.0902C11.8963 19.1129 11.9529 19.1239 12.0091 19.1239C12.1192 19.1239 12.2276 19.0815 12.3095 19.0015L15.4803 15.9026L21.4446 17.7273C21.4859 17.7399 21.5282 17.7461 21.5703 17.7461C21.6612 17.7461 21.751 17.7172 21.8259 17.6618C21.9354 17.5808 22 17.4526 22 17.3164V0.429701C22 0.2754 21.9173 0.132915 21.7832 0.056474ZM11.6559 14.1466C11.6062 14.2185 11.5795 14.3038 11.5795 14.3913V17.0197L9.69648 13.5923L18.029 4.94658L11.6559 14.1466ZM12.4389 17.6734V14.9721L14.5439 15.6161L12.4389 17.6734ZM21.1406 16.7356L12.6973 14.1525L21.1406 1.96386V16.7356Z" fill="#9A9A9A"/>
<path d="M7.06508 14.935C6.89725 14.7672 6.62525 14.7672 6.45738 14.935L2.44616 18.9462C2.27836 19.114 2.27836 19.386 2.44616 19.5539C2.53012 19.6378 2.64008 19.6797 2.75003 19.6797C2.85999 19.6797 2.96995 19.6378 3.05386 19.5538L7.06508 15.5426C7.23288 15.3749 7.23288 15.1028 7.06508 14.935Z" fill="#9A9A9A"/>
<path d="M1.72179 20.2781C1.55395 20.1104 1.28196 20.1104 1.11413 20.2782L0.125845 21.2665C-0.0419482 21.4343 -0.0419482 21.7063 0.125845 21.8742C0.209763 21.9581 0.31972 22 0.429677 22C0.539634 22 0.649591 21.958 0.733509 21.8741L1.72179 20.8859C1.88958 20.7181 1.88958 20.446 1.72179 20.2781Z" fill="#9A9A9A"/>
<path d="M6.12943 21.2412C6.04955 21.1612 5.93869 21.1153 5.82568 21.1153C5.7122 21.1153 5.60182 21.1612 5.52189 21.2412C5.44197 21.3211 5.396 21.4315 5.396 21.545C5.396 21.658 5.44193 21.7688 5.52189 21.8487C5.60182 21.9287 5.71268 21.9746 5.82568 21.9746C5.93869 21.9746 6.04955 21.9287 6.12943 21.8487C6.20935 21.7688 6.25537 21.658 6.25537 21.545C6.25537 21.4315 6.20939 21.3211 6.12943 21.2412Z" fill="#9A9A9A"/>
<path d="M9.3264 18.0441C9.1587 17.8763 8.8867 17.8763 8.71874 18.0441L6.59411 20.1687C6.42631 20.3365 6.42631 20.6086 6.59411 20.7763C6.67802 20.8603 6.78798 20.9022 6.89794 20.9022C7.0079 20.9022 7.11785 20.8602 7.20177 20.7763L9.3264 18.6518C9.4942 18.484 9.4942 18.2119 9.3264 18.0441Z" fill="#9A9A9A"/>
<path d="M16.6593 17.881C16.4915 17.7132 16.2195 17.7132 16.0516 17.881L13.9213 20.0114C13.7535 20.1792 13.7535 20.4512 13.9213 20.6191C14.0052 20.7029 14.1151 20.7449 14.2251 20.7449C14.335 20.7449 14.445 20.7029 14.5289 20.6191L16.6593 18.4887C16.8271 18.3209 16.8271 18.0488 16.6593 17.881Z" fill="#9A9A9A"/>
<path d="M12.1817 5.85707C12.1018 5.77715 11.9909 5.73117 11.8779 5.73117C11.7649 5.73117 11.6541 5.77715 11.5741 5.85707C11.4943 5.93699 11.4482 6.04785 11.4482 6.16129C11.4482 6.2743 11.4942 6.38473 11.5741 6.46465C11.6541 6.545 11.7649 6.59055 11.8779 6.59055C11.9909 6.59055 12.1018 6.545 12.1817 6.46465C12.2616 6.38473 12.3076 6.2743 12.3076 6.16129C12.3076 6.04785 12.2616 5.93699 12.1817 5.85707Z" fill="#9A9A9A"/>
</g>
<defs>
<clipPath id="clip0">
<rect width="22" height="22" fill="white"/>
</clipPath>
</defs>
</svg>
