<svg width="22" height="21" viewBox="0 0 22 21" fill="none" xmlns="http://www.w3.org/2000/svg">
<g clip-path="url(#clip0)">
<path d="M11.5075 0.33871L14.328 7L21.4357 7.56452C21.887 7.56452 22.1126 8.24193 21.7741 8.58064L16.3588 13.3226L17.9382 20.3226C18.0511 20.7742 17.487 21.2258 17.1485 20.8871L10.9434 17.1613L4.73824 20.8871C4.28696 21.1129 3.83568 20.7742 3.9485 20.3226L5.64081 13.3226L0.225421 8.58064C-0.225861 8.24193 -0.000219743 7.67742 0.563883 7.56452L7.67158 7L10.4921 0.33871C10.7177 -0.112903 11.2818 -0.112903 11.5075 0.33871Z" fill="black"/>
<g clip-path="url(#clip1)">
<path d="M11.5075 0.33871L14.328 7L21.4357 7.56452C21.887 7.56452 22.1126 8.24193 21.7741 8.58064L16.3588 13.3226L17.9382 20.3226C18.0511 20.7742 17.487 21.2258 17.1485 20.8871L10.9434 17.1613L4.73824 20.8871C4.28696 21.1129 3.83568 20.7742 3.9485 20.3226L5.64081 13.3226L0.225421 8.58064C-0.225861 8.24193 -0.000219743 7.67742 0.563883 7.56452L7.67158 7L10.4921 0.33871C10.7177 -0.112903 11.2818 -0.112903 11.5075 0.33871Z" fill="black"/>
</g>
<g clip-path="url(#clip2)">
<path d="M11.5075 0.33871L14.328 7L21.4357 7.56452C21.887 7.56452 22.1126 8.24193 21.7741 8.58064L16.3588 13.3226L17.9382 20.3226C18.0511 20.7742 17.487 21.2258 17.1485 20.8871L10.9434 17.1613L4.73824 20.8871C4.28696 21.1129 3.83568 20.7742 3.9485 20.3226L5.64081 13.3226L0.225421 8.58064C-0.225861 8.24193 -0.000219743 7.67742 0.563883 7.56452L7.67158 7L10.4921 0.33871C10.7177 -0.112903 11.2818 -0.112903 11.5075 0.33871Z" fill="#9A9A9A"/>
</g>
</g>
<defs>
<clipPath id="clip0">
<rect width="22" height="21" fill="white"/>
</clipPath>
<clipPath id="clip1">
<rect width="22" height="21" fill="white"/>
</clipPath>
<clipPath id="clip2">
<rect width="22" height="21" fill="white"/>
</clipPath>
</defs>
</svg>
