<svg width="384" height="568" viewBox="0 0 384 568" fill="none" xmlns="http://www.w3.org/2000/svg">
<g clip-path="url(#clip0)">
<path d="M158.445 357.926L19.051 438.463L18.3975 209.213L157.791 128.676L158.445 357.926ZM147.193 154.261L94.1234 184.926L94.2977 245.95L147.367 215.285L147.193 154.261ZM29.2902 283.504L82.3484 252.839L82.1742 191.815L29.1159 222.491L29.2902 283.504ZM147.41 229.893L94.3413 260.557L94.5156 321.571L147.585 290.906L147.41 229.893ZM29.4971 359.136L82.5554 328.471L82.3811 267.458L29.3228 298.122L29.4971 359.136ZM117.597 364.902L147.748 347.482L147.65 312.817L117.499 330.237L117.597 364.902ZM73.6234 390.313L103.763 372.893L103.665 338.227L73.5254 355.647L73.6234 390.313ZM29.6605 415.712L59.8006 398.292L59.7025 363.627L29.5625 381.047L29.6605 415.712Z" fill="#5280A2"/>
<path d="M18.3545 190.06L18.409 209.213L157.792 128.676L157.737 109.523L18.3545 190.06Z" fill="#589AB1"/>
<path d="M150.569 91.4054C160.351 85.7587 168.368 90.3262 168.4 101.576L169.152 368.652C169.185 379.891 161.211 393.703 151.43 399.361L26.2617 471.689C16.491 477.336 8.46308 472.757 8.43041 461.518L7.67881 194.442C7.64613 183.203 15.6196 169.381 25.3903 163.734L150.569 91.4054ZM18.4081 209.213L19.0617 438.463L158.455 357.926L157.747 109.523L18.3536 190.06L18.4081 209.213Z" fill="#243551"/>
<path d="M147.749 347.482L117.598 364.902L117.5 330.248L147.651 312.828L147.749 347.482Z" fill="#92A6C7"/>
<path d="M103.774 372.893L73.6234 390.313L73.5254 355.647L103.676 338.238L103.774 372.893Z" fill="#92A6C7"/>
<path d="M59.8006 398.303L29.6605 415.712L29.5625 381.058L59.7026 363.638L59.8006 398.303Z" fill="#92A6C7"/>
<path d="M82.5667 328.471L29.4975 359.136L29.3232 298.122L82.3924 267.458L82.5667 328.471Z" fill="#92A6C7"/>
<path d="M82.1745 191.826L82.3488 252.85L29.2905 283.504L29.1162 222.491L82.1745 191.826Z" fill="#92A6C7"/>
<path d="M94.3418 260.557L147.411 229.893L147.585 290.906L94.5161 321.571L94.3418 260.557Z" fill="#92A6C7"/>
<path d="M94.1348 184.915L147.193 154.261L147.367 215.285L94.3091 245.939L94.1348 184.915Z" fill="#92A6C7"/>
<path d="M0.0108927 189.188C0.0217854 188.905 0.0326781 188.621 0.0544634 188.338C0.0653561 188.207 0.0762488 188.065 0.0871415 187.934C0.0871415 187.88 0.0980342 187.825 0.0980342 187.76C0.108927 187.662 0.108927 187.575 0.11982 187.477C0.152498 187.193 0.174283 186.899 0.217854 186.615C0.250532 186.321 0.294103 186.027 0.348566 185.732C0.348566 185.721 0.359459 185.7 0.359459 185.689C0.359459 185.667 0.370351 185.656 0.370351 185.634C0.413922 185.373 0.457493 185.1 0.511956 184.838C0.56642 184.533 0.631776 184.228 0.697132 183.912C0.718917 183.792 0.751596 183.672 0.784274 183.552C0.795166 183.487 0.816952 183.421 0.827844 183.356C0.860522 183.225 0.882308 183.105 0.914986 182.974C0.991235 182.658 1.07838 182.342 1.16552 182.026C1.23087 181.786 1.30712 181.535 1.38337 181.296C1.39426 181.263 1.40516 181.219 1.41605 181.187C1.42694 181.154 1.43784 181.121 1.44873 181.088C1.54676 180.783 1.6448 180.478 1.74283 180.173C1.84086 179.868 1.94979 179.562 2.05872 179.268C2.0805 179.203 2.10229 179.137 2.13497 179.083C2.15675 179.028 2.16765 178.985 2.18943 178.93C2.25479 178.756 2.32014 178.57 2.39639 178.396C2.50532 178.102 2.62514 177.818 2.74496 177.524C2.8321 177.306 2.93013 177.088 3.01727 176.881C3.02817 176.848 3.04995 176.815 3.06085 176.783C3.07174 176.75 3.09352 176.717 3.10442 176.674C3.23513 176.39 3.36584 176.096 3.49655 175.812C3.64905 175.496 3.80155 175.18 3.95405 174.864C3.97583 174.809 4.00851 174.766 4.0303 174.722C4.06297 174.657 4.09565 174.591 4.12833 174.526C4.25904 174.275 4.37886 174.036 4.50957 173.785C4.67296 173.48 4.84725 173.174 5.02153 172.869C5.10867 172.716 5.19581 172.553 5.28295 172.4C5.31563 172.335 5.34831 172.28 5.39188 172.215C5.54438 171.953 5.70777 171.714 5.87116 171.452C6.1108 171.06 6.35044 170.667 6.60097 170.286C6.64454 170.22 6.67722 170.155 6.72079 170.089C7.05846 169.588 7.39614 169.097 7.75559 168.618C7.78827 168.574 7.81006 168.53 7.84274 168.487L7.85363 168.476C8.11505 168.127 8.37648 167.778 8.6488 167.44C8.85576 167.179 9.06272 166.928 9.26968 166.666C9.28057 166.655 9.29146 166.634 9.31325 166.623C9.32414 166.612 9.33503 166.601 9.33503 166.59C9.56378 166.318 9.79253 166.045 10.0213 165.783C10.25 165.522 10.4788 165.271 10.7184 165.02C10.7511 164.988 10.7838 164.955 10.8164 164.922C10.8491 164.879 10.8927 164.846 10.9254 164.813C11.0997 164.628 11.2739 164.443 11.4482 164.268C11.6987 164.017 11.9493 163.767 12.1998 163.527C12.2652 163.461 12.3414 163.396 12.4068 163.331C12.4612 163.276 12.5157 163.222 12.5811 163.167C12.7118 163.047 12.8425 162.916 12.9732 162.797C13.2346 162.568 13.496 162.339 13.7575 162.11C13.8664 162.023 13.9753 161.935 14.0842 161.837C14.1387 161.794 14.2041 161.739 14.2585 161.696C14.3566 161.619 14.4437 161.543 14.5417 161.467C14.8032 161.259 15.0537 161.063 15.3151 160.878C15.5003 160.747 15.6746 160.616 15.8598 160.485C15.8924 160.464 15.936 160.431 15.9687 160.409C16.0014 160.387 16.0449 160.355 16.0776 160.333C16.3281 160.158 16.5787 159.995 16.8183 159.842C17.0688 159.69 17.3085 159.537 17.559 159.384C17.6135 159.352 17.6788 159.319 17.7333 159.286L142.912 86.9578C143.097 86.8488 143.282 86.7507 143.468 86.6417C143.707 86.5109 143.947 86.3909 144.187 86.271C144.35 86.1947 144.502 86.1184 144.666 86.0421C144.698 86.0203 144.731 86.0094 144.775 85.9876C144.818 85.9658 144.862 85.944 144.905 85.9331C145.145 85.8241 145.374 85.726 145.613 85.6388C145.853 85.5407 146.093 85.4535 146.321 85.3662C146.365 85.3553 146.409 85.3335 146.463 85.3226C146.507 85.3117 146.539 85.3008 146.583 85.279C146.735 85.2245 146.888 85.1809 147.04 85.1264C147.291 85.0501 147.531 84.9847 147.77 84.9193C147.901 84.8866 148.021 84.8648 148.141 84.8321C148.195 84.8212 148.239 84.8103 148.293 84.7994C148.358 84.7885 148.435 84.7667 148.5 84.7558C148.761 84.7013 149.023 84.6577 149.273 84.625C149.437 84.6032 149.6 84.5923 149.774 84.5705C149.829 84.5705 149.873 84.5596 149.927 84.5596C149.971 84.5596 150.025 84.5487 150.069 84.5487C150.352 84.5269 150.635 84.516 150.907 84.516C151.038 84.516 151.158 84.5269 151.289 84.5378C151.376 84.5378 151.474 84.5487 151.561 84.5487C151.648 84.5596 151.746 84.5487 151.833 84.5596C152.182 84.5923 152.53 84.6468 152.857 84.7122C152.868 84.7122 152.879 84.7122 152.879 84.7231C152.977 84.7449 153.064 84.7776 153.151 84.7994C153.467 84.8757 153.794 84.952 154.099 85.061C154.142 85.0719 154.175 85.0937 154.219 85.1046C154.273 85.1264 154.328 85.1482 154.382 85.17C154.785 85.3335 155.177 85.508 155.548 85.726L163.227 90.1954C162.857 89.9774 162.464 89.803 162.061 89.6395C162.007 89.6177 161.953 89.5959 161.898 89.5741C161.56 89.4432 161.201 89.356 160.831 89.2688C160.733 89.247 160.645 89.2143 160.558 89.1925C160.133 89.1053 159.687 89.0508 159.229 89.0181C159.142 89.0072 159.044 89.0072 158.957 89.0072C158.51 88.9854 158.064 88.9963 157.606 89.029C157.552 89.029 157.508 89.0399 157.454 89.0399C156.975 89.0835 156.473 89.1598 155.972 89.2688C155.918 89.2797 155.874 89.2906 155.82 89.3015C155.308 89.4105 154.785 89.5632 154.262 89.7376C154.219 89.7485 154.186 89.7594 154.142 89.7812C153.587 89.9665 153.031 90.1954 152.465 90.457C152.432 90.4679 152.389 90.4897 152.356 90.5115C151.779 90.7841 151.191 91.0784 150.602 91.4272L25.3909 163.734C24.7918 164.083 24.2036 164.453 23.6262 164.857C23.5936 164.879 23.55 164.911 23.5173 164.933C22.9727 165.315 22.4389 165.718 21.9161 166.143C21.8616 166.187 21.7963 166.241 21.7418 166.285C21.2299 166.71 20.7288 167.146 20.2277 167.604C20.1733 167.658 20.1188 167.713 20.0534 167.767C19.5524 168.247 19.0513 168.738 18.572 169.25C18.5394 169.283 18.4958 169.326 18.4631 169.359C17.9512 169.904 17.4501 170.471 16.9599 171.06C16.949 171.081 16.9381 171.092 16.9163 171.114C16.4262 171.703 15.9469 172.313 15.4894 172.934C15.4567 172.978 15.4349 173.022 15.4023 173.065C15.0101 173.61 14.6289 174.166 14.2476 174.722C13.9971 175.104 13.7575 175.496 13.5178 175.889C13.3218 176.205 13.1257 176.51 12.9405 176.837C12.8534 176.99 12.7662 177.153 12.6791 177.306C12.3741 177.851 12.0691 178.396 11.7859 178.952C11.7532 179.017 11.7205 179.083 11.6879 179.148C11.3502 179.824 11.0234 180.522 10.7184 181.208C10.7075 181.241 10.6857 181.274 10.6748 181.307C10.3807 181.982 10.0975 182.669 9.84699 183.356C9.82521 183.4 9.81431 183.454 9.79253 183.498C9.5311 184.206 9.29146 184.915 9.0845 185.612C9.07361 185.645 9.06272 185.689 9.05183 185.721C8.84486 186.408 8.65969 187.084 8.50719 187.771C8.4963 187.836 8.47451 187.902 8.46362 187.967C8.30023 188.665 8.16952 189.352 8.06059 190.038C8.06059 190.06 8.0497 190.071 8.0497 190.093C7.94077 190.79 7.85363 191.488 7.79917 192.175C7.79917 192.229 7.78827 192.284 7.78827 192.338C7.73381 193.025 7.70113 193.712 7.70113 194.388L8.45273 461.464C8.45273 462.14 8.4854 462.783 8.55076 463.404C8.55076 463.459 8.56165 463.513 8.57255 463.579C8.62701 464.146 8.71415 464.701 8.81219 465.225C8.82308 465.29 8.84486 465.366 8.85576 465.432C8.96468 465.944 9.0954 466.435 9.237 466.904C9.26968 466.991 9.29146 467.078 9.32414 467.165C9.47664 467.623 9.65092 468.059 9.8361 468.473C9.84699 468.506 9.85788 468.539 9.87967 468.56C10.0975 469.018 10.3372 469.454 10.5986 469.858C10.6422 469.923 10.6857 469.978 10.7293 470.043C10.9363 470.348 11.165 470.643 11.3938 470.926C11.4809 471.035 11.5789 471.133 11.6661 471.231C11.8839 471.46 12.1018 471.678 12.3305 471.874C12.4286 471.962 12.5157 472.049 12.6246 472.125C12.9514 472.387 13.2891 472.637 13.6594 472.845L5.98009 468.375C5.62063 468.168 5.28295 467.917 4.94528 467.656C4.84725 467.579 4.74921 467.492 4.65118 467.405C4.42243 467.209 4.19369 466.991 3.98672 466.762C3.88869 466.664 3.80155 466.566 3.70351 466.457C3.46388 466.184 3.24602 465.89 3.03906 465.574C2.99549 465.508 2.94103 465.454 2.90835 465.388C2.89746 465.377 2.88656 465.356 2.87567 465.345C2.63603 464.963 2.40728 464.56 2.20032 464.124C2.20032 464.113 2.18943 464.102 2.18943 464.102C2.17854 464.069 2.16765 464.037 2.14586 464.004C2.01515 463.72 1.88444 463.426 1.77551 463.121C1.72104 462.99 1.68837 462.848 1.6339 462.707C1.60123 462.619 1.57944 462.532 1.54676 462.445C1.52498 462.358 1.4923 462.281 1.45962 462.194C1.37248 461.9 1.29623 461.595 1.21998 461.289C1.1982 461.191 1.17641 461.082 1.15462 460.973C1.14373 460.908 1.12195 460.832 1.11105 460.766C1.08927 460.657 1.06748 460.537 1.0457 460.428C1.00213 460.156 0.958557 459.872 0.914986 459.589C0.8932 459.436 0.882308 459.284 0.871415 459.12C0.860522 459.066 0.860522 459.011 0.84963 458.946C0.838737 458.869 0.838737 458.804 0.827844 458.739C0.806059 458.466 0.784274 458.194 0.773381 457.91C0.762488 457.627 0.751596 457.343 0.751596 457.06C0.751596 457.038 0.751596 457.027 0.751596 457.005L0 189.973C0 189.711 0 189.45 0.0108927 189.188Z" fill="#C0C4C7"/>
<path d="M254.682 115.344L254.725 130.802L249.943 133.56L249.922 123.607L241.262 128.611L241.251 123.117L254.682 115.344Z" fill="#C4C4C4"/>
<path d="M166.004 166.59L166.015 172.084L157.355 177.088L157.388 187.04L152.606 189.798L152.562 174.352L166.004 166.59Z" fill="#C4C4C4"/>
<path d="M296.706 186.801L296.771 208.657L277.753 219.646L277.698 197.778L296.706 186.801Z" fill="#22334F"/>
<path d="M360.505 149.933L360.57 171.79L341.562 182.778L341.497 160.911L360.505 149.933Z" fill="#C4C4C4"/>
<path d="M328.61 168.367L328.665 190.224L309.657 201.212L309.603 179.344L328.61 168.367Z" fill="#FF8584"/>
<path d="M353.686 99.5267L353.697 105.25L341.66 112.216L341.639 106.493L353.686 99.5267Z" fill="#C7E2ED"/>
<path d="M254.976 217.324L255.02 232.781L241.578 240.543L241.567 235.049L250.227 230.045L250.194 220.093L254.976 217.324Z" fill="#C4C4C4"/>
<path d="M337.292 137.441L337.314 145.224L277.644 179.693L277.622 171.91L337.292 137.441Z" fill="#FF8584"/>
<path d="M353.653 89.2252L353.675 94.9483L284.201 135.097L284.18 129.374L353.653 89.2252Z" fill="#C7E2ED"/>
<path d="M296.793 111.769L296.804 117.492L284.168 124.795L284.146 119.072L296.793 111.769Z" fill="#C7E2ED"/>
<path d="M353.075 58.4951C357.018 56.2168 360.254 58.0591 360.264 62.5939L360.373 102.764C360.384 107.299 357.171 112.87 353.228 115.148L284.745 154.719C280.802 156.997 277.567 155.155 277.556 150.62L277.447 110.45C277.436 105.915 280.65 100.344 284.593 98.066L353.075 58.4951ZM353.674 94.9483L353.663 89.2252L284.19 129.363L284.201 135.086L353.674 94.9483ZM284.146 119.072L284.157 124.795L296.804 117.492L296.793 111.769L284.146 119.072ZM353.696 105.25L353.685 99.5267L341.638 106.482L341.649 112.205L353.696 105.25Z" fill="#F6F6F6"/>
<path d="M129.133 164.846L383.532 17.856L384 181.296L129.601 328.286L129.133 164.846ZM360.374 102.775L360.265 62.6048C360.254 58.07 357.019 56.2277 353.076 58.506L284.593 98.0769C280.65 100.355 277.437 105.926 277.448 110.461L277.557 150.631C277.567 155.166 280.803 157.008 284.746 154.73L353.228 115.159C357.171 112.881 360.385 107.31 360.374 102.775ZM360.461 131.848L360.439 124.065L337.292 137.441L277.622 171.921L277.644 179.704L337.314 145.224L360.461 131.848ZM360.57 171.79L360.504 149.933L341.497 160.922L341.562 182.778L360.57 171.79ZM328.665 190.224L328.6 168.367L309.592 179.355L309.657 201.212L328.665 190.224ZM296.771 208.657L296.706 186.801L277.698 197.789L277.764 219.646L296.771 208.657ZM166.331 284.016L166.32 278.522L157.661 283.526L157.628 273.573L152.846 276.331L152.89 291.778L166.331 284.016ZM166.015 172.084L166.005 166.59L152.563 174.352L152.607 189.798L157.388 187.04L157.356 177.088L166.015 172.084ZM254.726 130.802L254.682 115.355L241.24 123.117L241.251 128.611L249.911 123.607L249.944 133.56L254.726 130.802ZM255.02 232.781L254.976 217.335L250.194 220.093L250.227 230.045L241.567 235.049L241.578 240.543L255.02 232.781Z" fill="#FEFFFF"/>
<path d="M360.428 124.065L337.292 137.441L337.314 145.224L360.461 131.848L360.428 124.065Z" fill="#C4C4C4"/>
<path d="M383.488 0L383.531 17.8559L129.132 164.846L129.089 146.99L383.488 0Z" fill="#FF8584"/>
<path d="M157.627 273.573L157.66 283.526L166.32 278.522L166.331 284.016L152.9 291.789L152.856 276.331L157.627 273.573Z" fill="#C4C4C4"/>
<path d="M215.055 210.805C214.978 210.86 214.891 210.903 214.814 210.947C214.891 210.903 214.978 210.86 215.055 210.805Z" fill="#E1E7EF"/>
<path d="M214.706 211.012C214.706 211.012 214.488 213.432 214.313 215.525C214.412 214.424 214.531 212.963 214.706 211.012Z" fill="#E1E7EF"/>
<path d="M214.705 211.013C214.717 211.013 214.728 211.001 214.728 211.001C214.728 211.001 214.717 211.013 214.705 211.013Z" fill="#E1E7EF"/>
<path d="M217.069 214.849C217.178 214.653 217.222 214.511 217.222 214.511L217.211 214.5C217.995 215.579 218.322 216.005 218.322 216.005C218.322 216.005 221.002 209.17 217.995 205.823C217.374 205.888 217.374 205.888 217.374 205.888V205.79C218.257 205.736 219.084 205.594 219.825 205.376C220.588 205.147 221.263 204.646 221.873 203.937C228.507 206.902 233.408 213.726 235.543 223.624C235.935 225.445 236.24 227.364 236.437 229.391C235.816 233.871 232.276 238.461 225.947 242.113C225.707 242.254 225.468 242.374 225.228 242.516C223.398 224.715 217.069 214.849 217.069 214.849Z" fill="#E1E7EF"/>
<path d="M177.648 231.113C178.748 227.789 180.012 224.093 182.594 220.975C187.495 215.056 192.985 210.151 198.769 206.815C199.052 206.651 199.325 206.499 199.608 206.346C199.608 206.87 199.608 207.404 199.608 207.905C200.305 214.38 214.095 218.664 214.095 218.664C214.095 218.664 214.095 218.25 214.313 215.536C214.411 215.579 214.509 215.612 214.596 215.645C216.459 220.311 217.712 245.492 217.723 245.699C205.817 249.536 191.569 249.046 182.659 243.9C176.853 240.543 176.755 235.866 177.648 231.113Z" fill="#E1E7EF"/>
<path d="M214.705 211.012C215.827 212.582 216.644 213.715 217.211 214.5L217.222 214.511C217.222 214.511 217.178 214.653 217.069 214.849C217.058 214.849 215.021 214.424 214.607 215.645C214.509 215.612 214.422 215.579 214.324 215.536V215.525C214.499 213.432 214.705 211.012 214.705 211.012Z" fill="#121633"/>
<path d="M214.607 215.645C215.021 214.424 217.058 214.849 217.069 214.849C217.069 214.849 223.398 224.715 225.217 242.505C225.217 242.505 225.217 242.505 225.217 242.516C222.483 244.249 217.723 245.71 217.723 245.71C217.723 245.503 216.47 220.311 214.607 215.645Z" fill="#121633"/>
<path d="M217.385 205.79V205.888V206.15C217.363 206.968 217.124 209.475 215.054 210.805C214.978 210.859 214.891 210.903 214.814 210.947C214.793 210.957 214.76 210.979 214.738 210.99C214.727 210.99 214.716 211.001 214.716 211.001C200.567 212.222 199.663 204.057 199.619 202.52C199.619 202.367 199.619 202.269 199.619 202.269V195.162C203.236 202.891 211.558 206.15 217.385 205.79Z" fill="#EE9B9C"/>
<path d="M207.538 174.341C204.02 172.836 198.247 170.253 194.827 169.599C200.273 171.245 203.835 174.711 205.621 175.464C203.791 176.87 202.615 182.462 202.942 184.479C203.268 186.495 202.756 189.755 201.155 190.256C200.077 186.594 195.338 183.868 193.508 186.594C193.127 187.607 193.007 188.523 193.062 189.351C193.062 189.351 181.853 173.294 192.408 168.639C191.635 164.911 193.672 158.283 206.057 158.218C213.584 158.501 213.301 160.616 216.47 159.483C217.592 158.425 222.734 156.67 226.187 161.031C229.64 165.402 227.472 171.169 226.731 173.076C221.84 175.605 211.057 175.845 207.538 174.341Z" fill="#121633"/>
<path d="M219.825 205.376C219.084 205.594 218.256 205.736 217.374 205.79C211.557 206.161 203.224 202.891 199.608 195.184C199.542 195.042 199.477 194.911 199.412 194.769C197.712 194.922 193.323 193.221 193.061 189.352C193.007 188.534 193.127 187.618 193.508 186.594C195.338 183.868 200.076 186.594 201.155 190.256C202.745 189.755 203.268 186.495 202.941 184.479C202.614 182.462 203.791 176.87 205.621 175.464C203.834 174.711 200.272 171.234 194.826 169.599C198.246 170.253 204.019 172.836 207.538 174.341C211.056 175.845 221.851 175.605 226.731 173.076C226.731 173.076 227.101 180.02 226.36 183.312C226.687 185.918 225.848 199.315 221.894 203.937C221.273 204.646 220.587 205.147 219.825 205.376Z" fill="#F6B8A9"/>
<path d="M214.705 211.012C214.53 212.963 214.411 214.424 214.313 215.525V215.536C214.095 218.25 214.095 218.664 214.095 218.664C214.095 218.664 200.315 214.38 199.607 207.905C199.607 207.404 199.607 206.88 199.607 206.346C199.607 205.005 199.607 203.708 199.607 202.956C199.607 202.782 199.607 202.64 199.607 202.542C199.662 204.068 200.555 212.233 214.705 211.012Z" fill="white"/>
<path d="M214.738 211.001C214.759 210.99 214.792 210.968 214.814 210.957C214.901 210.914 214.977 210.859 215.053 210.816C217.112 209.486 217.363 206.979 217.385 206.161C217.385 205.997 217.385 205.899 217.385 205.899C217.385 205.899 217.385 205.899 218.005 205.834C221.012 209.181 218.332 216.016 218.332 216.016C218.332 216.016 218.005 215.59 217.221 214.511C216.644 213.726 215.838 212.603 214.716 211.023C214.716 211.012 214.727 211.001 214.738 211.001Z" fill="white"/>
<path d="M115.168 304.827C116.759 300.728 120.517 299.703 120.745 301.818C120.974 303.944 122.793 307.214 125.756 309.972C128.719 312.73 131.246 317.897 130.396 322.083C131.17 325.419 132.684 332.046 132.684 332.046C128.926 331.164 124.754 331.73 122.793 336.93C122.793 336.93 122.227 331.469 120.974 323.609C117.783 320.426 113.567 308.925 115.168 304.827Z" fill="#FFD1D9"/>
<path d="M210.49 303.289C214.009 307.159 221.535 320.404 219.422 361.894C218.279 368.053 214.826 374.593 211.209 380.098C215.174 358.165 216.525 312.294 210.49 303.289Z" fill="#CBC9E3"/>
<path d="M174.98 544.138C178.324 543.876 180.513 542.873 181.907 541.892C181.809 545.5 182.55 548.302 183.302 550.853C184.119 553.654 184.347 559.606 183.705 561.699C183.705 561.699 182.768 564.73 177.06 565.024C171.352 565.318 165.634 562.277 161.56 560.533C157.475 558.778 149.556 559.246 149.556 559.246C149.556 559.246 148.216 557.143 148.739 553.469C149.262 549.795 152.345 547.353 152.345 547.353C153.521 547.441 154.665 547.506 155.754 547.528L154.491 549.512C154.262 549.882 154.371 550.373 154.73 550.602C155.101 550.831 155.591 550.722 155.819 550.362L157.432 547.833C157.497 547.735 157.53 547.637 157.541 547.528C158.031 547.517 158.51 547.495 158.989 547.452L157.976 549.043C157.747 549.414 157.856 549.904 158.216 550.133C158.586 550.362 159.076 550.253 159.305 549.893L160.917 547.364C160.95 547.321 160.972 547.266 160.994 547.212C161.484 547.135 161.974 547.026 162.453 546.906L161.473 548.454C161.244 548.825 161.353 549.316 161.712 549.544C162.072 549.773 162.573 549.664 162.802 549.305L164.414 546.776C164.523 546.601 164.555 546.405 164.523 546.22C166.375 545.304 166.886 543.723 166.941 542.361C168.39 543.364 170.939 544.454 174.98 544.138Z" fill="#C56E78"/>
<path d="M148.729 553.469C148.206 557.143 149.546 559.246 149.546 559.246C149.546 559.246 157.476 558.778 161.55 560.533C165.634 562.288 171.342 565.318 177.05 565.024C182.758 564.73 183.695 561.699 183.695 561.699C183.869 563.214 184.163 565.613 181.189 567.357C178.216 569.112 169.011 566.954 165.972 565.024C162.944 563.095 159.622 562.811 156.408 562.691C153.206 562.571 142.771 562.92 140.963 552.891C140.843 551.027 141.017 546.361 147.487 546.939C149.186 547.092 150.788 547.244 152.324 547.353C152.334 547.353 149.252 549.795 148.729 553.469Z" fill="white"/>
<path d="M164.425 546.787L162.813 549.316C162.584 549.686 162.083 549.795 161.724 549.555C161.364 549.316 161.244 548.825 161.484 548.465L162.464 546.917L163.085 545.936C163.314 545.566 163.815 545.457 164.175 545.696C164.371 545.827 164.49 546.024 164.523 546.242C164.567 546.416 164.534 546.612 164.425 546.787Z" fill="white"/>
<path d="M159.317 549.904C159.088 550.275 158.587 550.384 158.227 550.144C157.857 549.915 157.748 549.414 157.988 549.054L159.001 547.462L159.6 546.525C159.829 546.154 160.33 546.045 160.689 546.285C161.005 546.492 161.136 546.885 161.005 547.233C160.983 547.288 160.961 547.332 160.929 547.386L159.317 549.904Z" fill="white"/>
<path d="M155.82 550.373C155.591 550.744 155.09 550.853 154.73 550.613C154.36 550.384 154.251 549.882 154.491 549.523L155.754 547.539L156.103 546.994C156.331 546.623 156.833 546.514 157.192 546.754C157.464 546.928 157.595 547.244 157.551 547.539C157.541 547.648 157.497 547.746 157.443 547.844L155.82 550.373Z" fill="white"/>
<path d="M223.866 533.727C223.539 532.593 223.289 531.318 223.093 530.053C223.278 531.329 223.528 532.593 223.866 533.727Z" fill="white"/>
<path d="M201.885 530.718C201.885 531.83 203.922 534.392 205.61 535.558C207.299 536.725 209.63 539.352 211.144 542.034C212.658 544.715 215.806 547.92 220 547.114C224.193 546.296 224.781 542.666 224.781 542.666C224.781 542.666 225.794 545.664 224.313 547.724C222.832 549.784 217.865 551.648 213.159 548.389C208.453 545.119 209.118 541.118 206.362 538.513C203.606 535.907 200.11 533.106 200.186 527.666C200.251 522.979 203.693 518.64 207.321 519.436C207.702 520.842 208.007 521.987 208.235 522.815C203.388 524.919 202.343 528.887 201.885 530.718Z" fill="white"/>
<path d="M223.093 530.064C223.028 529.639 222.973 529.225 222.93 528.811C222.984 529.225 223.039 529.639 223.093 530.064Z" fill="white"/>
<path d="M222.614 524.603C222.647 525.704 222.734 527.208 222.93 528.811C222.745 527.208 222.647 525.704 222.614 524.603Z" fill="white"/>
<path d="M220.01 547.114C215.816 547.931 212.668 544.726 211.154 542.034C209.64 539.352 207.309 536.725 205.621 535.558C203.932 534.392 201.896 531.83 201.896 530.718C202.342 528.876 203.399 524.919 208.257 522.793C208.529 523.785 208.671 524.341 208.671 524.341C208.671 524.341 211.002 527.993 217.842 526.478C219.977 526.009 221.513 525.322 222.624 524.592C222.657 525.693 222.744 527.197 222.94 528.8C222.984 529.214 223.049 529.628 223.104 530.053C223.289 531.318 223.539 532.582 223.877 533.727C223.91 533.858 223.953 533.978 223.986 534.098C224.029 534.218 224.062 534.348 224.095 534.468C225.195 538.305 224.803 542.655 224.803 542.655C224.792 542.666 224.215 546.296 220.01 547.114Z" fill="#C56E78"/>
<path d="M208.006 390.836C208.006 390.836 211.579 397.78 211.906 406.642C212.538 423.823 210.152 449.157 210.228 451.849C210.348 455.937 210.817 461.061 212.559 466.086C214.313 471.1 225.424 521.234 225.424 521.234C225.424 521.234 225.075 523 222.624 524.603C221.513 525.322 219.977 526.009 217.842 526.489C211.002 528.004 208.671 524.352 208.671 524.352C208.671 524.352 208.518 523.807 208.257 522.804C208.028 521.976 207.723 520.831 207.342 519.425C203.627 505.711 193.279 467.514 190.992 458.586C191.025 458.728 191.068 458.88 191.112 459.033C191.025 448.088 190.861 424.302 191.166 419.081C196.373 417.445 200.567 416.05 204.063 412.311C200.338 414.022 193.258 416.671 182.964 417.794C182.964 417.794 180.404 447.772 180.045 457.463C179.696 467.143 179.457 476.017 180.274 482.198C181.09 488.379 183.999 539.712 183.999 539.712C183.999 539.712 183.454 540.791 181.907 541.892C180.524 542.884 178.324 543.887 174.98 544.138C170.938 544.454 168.39 543.364 166.952 542.372C165.873 541.63 165.416 540.944 165.416 540.944C165.416 540.944 160.209 481.598 159.044 467.601C157.878 453.604 155.318 386.05 155.318 386.05C157.181 392.122 164.403 407.406 208.006 390.836Z" fill="#758AC8"/>
<path d="M190.861 458.139C190.872 458.161 190.872 458.184 190.872 458.206C190.872 458.184 190.872 458.161 190.861 458.139Z" fill="#758AC8"/>
<path d="M190.818 457.943C190.818 457.954 190.818 457.965 190.83 457.977C190.818 457.965 190.818 457.954 190.818 457.943Z" fill="#758AC8"/>
<path d="M191.145 419.07C190.85 424.302 191.003 448.077 191.09 459.022C191.047 458.869 191.014 458.717 190.97 458.575C190.938 458.444 190.905 458.313 190.872 458.204C190.861 458.183 190.861 458.161 190.861 458.139C190.85 458.085 190.829 458.019 190.818 457.965C190.818 457.954 190.818 457.943 190.807 457.932C190.731 457.649 190.676 457.409 190.633 457.213C189.119 450.912 182.942 417.783 182.942 417.783C193.236 416.661 200.316 414.012 204.042 412.3C200.545 416.039 196.351 417.434 191.145 419.07Z" fill="#626EB0"/>
<path d="M156.56 319.161C160.721 315.248 165.045 312.708 167.747 311.825C169.577 311.225 172.082 310.757 174.032 309.863C180.11 310.037 189.184 310.43 192.691 307.312C194.586 305.415 194.107 303.944 193.334 303.028C196.994 302.385 204.052 300.335 208.758 301.829C209.39 302.025 209.956 302.526 210.479 303.3C216.524 312.305 215.163 358.176 211.198 380.109C210.261 385.309 209.172 389.157 207.995 390.858C164.392 407.427 157.17 392.144 155.307 386.072C153.674 372.773 154.719 359.474 154.719 359.474C154.719 359.474 161.952 349.085 163.815 344.07C165.688 339.034 169.108 321.211 156.56 319.161Z" fill="#EEEFFC"/>
<path d="M192.702 307.301C189.195 310.419 180.121 310.026 174.043 309.852C174.174 309.797 174.294 309.732 174.414 309.677C174.424 309.677 174.435 309.667 174.446 309.667C174.555 309.612 174.675 309.547 174.784 309.492C174.795 309.481 174.817 309.47 174.827 309.47C174.926 309.416 175.024 309.35 175.122 309.296C175.143 309.285 175.165 309.274 175.187 309.252C175.274 309.198 175.361 309.132 175.448 309.078C175.47 309.056 175.492 309.045 175.514 309.023C175.59 308.969 175.666 308.903 175.742 308.838C175.764 308.816 175.797 308.794 175.819 308.773C175.884 308.707 175.949 308.653 176.015 308.587C176.037 308.566 176.069 308.533 176.091 308.511C176.145 308.446 176.211 308.391 176.265 308.326C176.287 308.293 176.32 308.271 176.342 308.239C176.396 308.173 176.44 308.108 176.483 308.042C176.505 308.01 176.527 307.977 176.549 307.944C176.592 307.879 176.625 307.813 176.668 307.748C176.69 307.715 176.712 307.672 176.734 307.639C176.766 307.574 176.799 307.497 176.821 307.432C176.843 307.388 176.854 307.345 176.875 307.301C176.897 307.236 176.919 307.159 176.941 307.083C176.952 307.039 176.973 306.996 176.984 306.941C177.006 306.865 177.017 306.789 177.028 306.712C177.039 306.658 177.05 306.614 177.05 306.56C177.06 306.483 177.06 306.396 177.06 306.32C177.06 306.265 177.071 306.211 177.071 306.156C177.071 306.069 177.06 305.982 177.06 305.895C177.06 305.84 177.06 305.786 177.05 305.731C177.039 305.633 177.017 305.535 177.006 305.437C176.995 305.382 176.995 305.339 176.984 305.284C176.952 305.143 176.919 304.99 176.875 304.837C176.875 304.827 176.875 304.816 176.864 304.816C176.363 303.093 175.666 301.927 174.729 301.109C174.381 300.804 173.989 300.542 173.575 300.324C173.466 300.27 173.368 300.215 173.259 300.172C172.714 299.921 172.126 299.725 171.462 299.561C171.331 299.529 171.2 299.496 171.059 299.463C170.786 299.398 170.503 299.343 170.209 299.289C170.035 299.256 169.86 299.223 169.686 299.191C169.272 299.125 168.847 299.049 168.39 298.984C168.15 298.951 167.9 298.918 167.649 298.875C167.41 298.842 167.17 298.809 166.919 298.776C166.669 298.744 166.418 298.711 166.157 298.667C162.323 298.133 161.549 291.56 161.756 286.077C161.756 286.066 161.756 286.055 161.756 286.044C161.767 285.652 161.789 285.259 161.822 284.878C161.832 284.725 161.843 284.583 161.854 284.431C161.876 284.191 161.887 283.962 161.909 283.733C162.116 281.466 162.453 279.645 162.737 278.915C162.628 277.345 162.649 275.917 162.769 274.598C163.924 276.189 165.612 277.857 168.03 279.536C167.007 282.806 166.473 286.229 166.473 286.229L167.246 287.003C167.246 287.003 169.022 283.242 171.669 282.981C174.316 282.719 177.812 287.232 173.379 290.731C175.481 294.307 178.88 298.591 189.424 298.122C189.424 300.902 189.936 302.494 191.199 303.104C191.243 303.126 191.297 303.148 191.363 303.159C191.384 303.159 191.406 303.17 191.439 303.17C191.482 303.18 191.526 303.18 191.57 303.191C191.602 303.191 191.635 303.191 191.678 303.202C191.722 303.202 191.766 303.202 191.82 303.202C191.864 303.202 191.907 303.202 191.951 303.202C191.994 303.202 192.049 303.202 192.092 303.191C192.147 303.191 192.201 303.18 192.256 303.18C192.299 303.18 192.354 303.17 192.397 303.17C192.463 303.159 192.528 303.159 192.593 303.148C192.637 303.137 192.681 303.137 192.735 303.126C192.811 303.115 192.888 303.104 192.975 303.093C193.007 303.082 193.051 303.082 193.084 303.071C193.182 303.061 193.28 303.039 193.378 303.028C194.118 303.944 194.587 305.415 192.702 307.301Z" fill="#FFD1D9"/>
<path d="M173.346 290.742C177.78 287.243 174.283 282.73 171.636 282.992C168.989 283.253 167.214 287.014 167.214 287.014L166.44 286.24C166.44 286.24 166.974 282.817 167.998 279.547C165.58 277.868 163.892 276.2 162.737 274.609C158.489 268.766 161.441 264.035 161.441 264.035C161.441 264.035 195.753 249.602 197.212 278.849C197.332 282.937 194.653 286.938 193.247 289.042C191.853 291.146 190.688 297.981 189.391 298.144C178.847 298.591 175.449 294.318 173.346 290.742Z" fill="#714D55"/>
<path d="M132.673 332.046C132.956 332.112 133.239 332.188 133.512 332.264C135.287 332.788 136.714 336.374 137.738 340.179C137.694 345.891 137.302 354.263 135.57 358.71C138.054 353.5 139.688 349.881 139.688 349.881C139.688 349.881 146.452 331.567 151.692 324.568C151.866 324.328 152.051 324.1 152.236 323.86C152.291 323.783 152.345 323.718 152.4 323.653C152.53 323.489 152.661 323.326 152.792 323.173C152.857 323.097 152.922 323.02 152.988 322.944C153.119 322.791 153.238 322.639 153.369 322.486C153.434 322.41 153.489 322.345 153.554 322.268C153.696 322.116 153.827 321.952 153.968 321.799C154.023 321.745 154.077 321.68 154.132 321.625C154.295 321.451 154.447 321.276 154.611 321.102C154.644 321.069 154.676 321.036 154.698 321.004C155.308 320.361 155.929 319.739 156.55 319.15C169.098 321.2 165.678 339.034 163.815 344.049C161.953 349.063 154.72 359.452 154.72 359.452C154.72 359.452 147.487 373.22 139.1 373.1C138.577 373.089 138.054 372.969 137.531 372.762C137.27 372.653 137.008 372.522 136.747 372.359C136.224 372.042 135.712 371.639 135.211 371.149C134.96 370.909 134.699 370.636 134.448 370.353C134.318 370.211 134.198 370.069 134.078 369.917C133.708 369.47 133.337 368.968 132.967 368.445C132.727 368.096 132.488 367.726 132.248 367.344C131.649 366.396 131.072 365.349 130.505 364.237C129.939 363.125 129.405 361.959 128.882 360.749C125.876 353.707 123.643 345.28 122.978 340.07C122.913 339.535 122.859 339.023 122.826 338.565C122.815 338.413 122.804 338.26 122.793 338.118C122.782 337.824 122.771 337.552 122.771 337.301C122.771 337.17 122.771 337.05 122.782 336.93C124.743 331.73 128.915 331.163 132.673 332.046Z" fill="#EEEFFC"/>
<path d="M137.749 340.19C138.784 344.005 139.426 348.027 139.623 349.401C139.633 349.455 139.633 349.499 139.644 349.543V349.554C139.655 349.597 139.655 349.63 139.655 349.663C139.655 349.663 139.655 349.663 139.655 349.673C139.655 349.706 139.666 349.728 139.666 349.75C139.666 349.761 139.666 349.772 139.666 349.772C139.666 349.793 139.666 349.804 139.677 349.815V349.826C139.677 349.837 139.677 349.859 139.677 349.859C139.677 349.87 139.677 349.87 139.677 349.87C139.677 349.87 138.043 353.489 135.56 358.7C137.313 354.274 137.705 345.891 137.749 340.19Z" fill="#CBC9E3"/>
</g>
<defs>
<clipPath id="clip0">
<rect width="384" height="568" fill="white"/>
</clipPath>
</defs>
</svg>
