<svg width="22" height="22" viewBox="0 0 22 22" fill="none" xmlns="http://www.w3.org/2000/svg">
<path d="M21.1219 6.7119C19.962 4.00774 17.991 2.04107 15.2642 0.87813C13.9014 0.296892 12.4736 0 10.9819 0C9.49052 0 8.07325 0.294088 6.71191 0.87813C4.00774 2.03798 2.02799 4.00339 0.866052 6.7119C0.283807 8.06885 0 9.49048 0 10.9819C0 12.4736 0.283807 13.907 0.866052 15.2642C2.02799 17.9727 4.00799 19.9499 6.71191 21.1101C8.0735 21.6941 9.49048 21.9879 10.9819 21.9879C12.4734 21.9879 13.9014 21.691 15.264 21.1101C17.9908 19.9471 19.9618 17.9681 21.1219 15.2642C21.7059 13.9026 22 12.4736 22 10.9819C22 9.49048 21.7062 8.07346 21.1219 6.7119ZM19.3659 15.8416C18.5024 17.3225 17.3194 18.4973 15.8295 19.3659C14.3487 20.2294 12.7261 20.6649 10.9822 20.6649C9.67116 20.6649 8.42018 20.4124 7.22923 19.895C6.03832 19.378 5.01007 18.6982 4.14991 17.8383C3.28976 16.9781 2.60513 15.9399 2.0932 14.7469C1.58278 13.5583 1.33542 12.2932 1.33542 10.9819C1.33542 9.23773 1.76395 7.62339 2.6226 6.14662C3.4843 4.66446 4.66752 3.4884 6.14688 2.62231C7.62598 1.75626 9.23802 1.32309 10.9819 1.32309C12.7261 1.32309 14.3484 1.75881 15.8293 2.62231C17.3192 3.49095 18.4996 4.66698 19.3656 6.14659C20.2317 7.62594 20.6646 9.23773 20.6646 10.9819C20.6646 12.7261 20.2345 14.3514 19.3659 15.8416Z" fill="#9A9A9A"/>
<path d="M11.6796 10.8849V4.65408C11.6796 4.28123 11.3547 3.98049 10.9819 3.98049C10.6331 3.98049 10.3203 4.28123 10.3203 4.65408V10.9811C10.3203 10.9931 10.3444 11.0414 10.3444 11.0773C10.3203 11.2939 10.3806 11.4743 10.5249 11.6188L14.1215 15.2152C14.3622 15.4559 14.8072 15.4559 15.0477 15.2152C15.3242 14.9386 15.306 14.5372 15.0477 14.277L11.6796 10.8849Z" fill="#9A9A9A"/>
</svg>
