<svg width="46" height="41" viewBox="0 0 46 41" fill="none" xmlns="http://www.w3.org/2000/svg">
<path fill-rule="evenodd" clip-rule="evenodd" d="M36.1462 8.90948C35.1615 9.8941 33.8519 10.439 32.4562 10.439C31.0701 10.439 29.7509 9.90369 28.7662 8.90948C26.73 6.87329 26.73 3.56573 28.7662 1.52954C29.7509 0.544922 31.0605 0 32.4562 0C33.8519 0 35.1615 0.544922 36.1462 1.52954C38.1824 3.56573 38.1824 6.87329 36.1462 8.90948ZM32.4658 2.29431C31.6819 2.29431 30.9458 2.60022 30.3913 3.15466C29.2538 4.29224 29.2538 6.14679 30.3913 7.29395C30.9458 7.84839 31.6819 8.1543 32.4658 8.1543C33.2496 8.1543 33.9857 7.84839 34.5402 7.29395C35.6778 6.15631 35.6778 4.29224 34.5402 3.15466C33.9857 2.60022 33.2496 2.29431 32.4658 2.29431ZM24.6077 23.5069C26.3953 23.5069 28.0683 22.809 29.3397 21.5472C31.9494 18.9374 31.9494 14.7026 29.3397 12.0928C28.0778 10.8309 26.3953 10.1331 24.6077 10.1331C22.8201 10.1331 21.1472 10.8309 19.8757 12.0928C17.266 14.7026 17.266 18.9374 19.8757 21.5472C21.1472 22.809 22.8201 23.5069 24.6077 23.5069ZM21.5009 13.718C22.3325 12.8862 23.4319 12.4274 24.6077 12.4274C25.7835 12.4274 26.8829 12.8862 27.7145 13.718C29.4257 15.4291 29.4257 18.2205 27.7145 19.9316C26.8829 20.7633 25.7835 21.2222 24.6077 21.2222C23.4319 21.2222 22.3325 20.7633 21.5009 19.9316C19.7897 18.2205 19.7897 15.4291 21.5009 13.718ZM40.0273 23.0767C43.1437 21.7001 45.199 23.6216 45.8586 24.8261C46.1358 25.3328 45.9924 25.9541 45.5431 26.2983L28.9096 38.4771C27.3131 39.6434 25.2769 40.1404 23.3268 39.825L9.92434 37.6837L6.80793 40.2839C6.58806 40.4655 6.32995 40.5515 6.07184 40.5515C5.74682 40.5515 5.42179 40.4081 5.19237 40.1404C4.7813 39.6529 4.84823 38.9264 5.33576 38.5249L8.85366 35.5901C9.11178 35.3798 9.44635 35.2938 9.77138 35.3416L23.6805 37.5594C25.0284 37.7697 26.4336 37.4351 27.5425 36.6226L43.1341 25.1989C43.115 25.1893 43.1054 25.1798 43.0863 25.1702C42.4841 24.7974 41.7862 24.7974 40.9545 25.1702C38.4862 26.2628 33.6748 28.568 32.2159 29.267L32.2045 29.2725C31.9471 29.3958 31.7971 29.4677 31.787 29.472C31.223 29.7493 30.5347 29.5103 30.2575 28.9367C29.9802 28.3631 30.2192 27.6844 30.7928 27.4072C30.802 27.4032 30.9279 27.343 31.1459 27.2388L31.2101 27.2082L31.2342 27.1967L31.242 27.193C32.7308 26.4814 37.5447 24.181 40.0273 23.0767ZM24.7224 29.0227L17.2182 26.7476C14.0923 25.8011 10.431 27.5505 10.0677 27.7418L1.74135 32.7605C1.55016 32.8657 1.3494 32.923 1.14866 32.923C0.756718 32.923 0.3839 32.7223 0.164021 32.3686C-0.161006 31.8237 0.0110672 31.1163 0.555959 30.7913L8.92055 25.7343C8.93967 25.7151 8.96834 25.7056 8.98746 25.696L8.99372 25.6929C9.26105 25.5588 13.7666 23.2984 17.8778 24.5393L26.2806 27.0822C26.7299 27.216 27.0454 27.6079 27.0932 28.0764C27.2366 29.5772 26.4623 31.9575 23.7569 32.3877C21.1231 32.8128 17.1135 32.5858 16.6855 32.5615L16.6542 32.5598C16.0233 32.5215 15.5453 31.9766 15.5835 31.3457C15.6218 30.7148 16.1667 30.2368 16.7976 30.275L16.8272 30.2765L16.8431 30.2773L16.8449 30.2774H16.8462C17.3168 30.3022 21.074 30.5002 23.3937 30.1317C24.0628 30.0265 24.4739 29.7206 24.6746 29.1757C24.6938 29.1279 24.7129 29.0706 24.7224 29.0227Z" fill="#A6A6A6"/>
</svg>
